<svg width="1398px" height="975px" viewBox="0 0 1398 975" xmlns="http://www.w3.org/2000/svg" xmlns:xlink="http://www.w3.org/1999/xlink"><g transform="matrix(1, 0, 0, 1, 0, 0)" clip-path="url(#mainClip28645)"><g transform="matrix(1, 0, 0, 1, 1026.8898738207363, 284.6829264205642)"><g transform="matrix(1, 0, 0, 1, -436.761080344328, 86.37497806739768)"><path d="M 0,10.277951410073896 C 68.70623078707013,-0.41350627233670423 137.2370636898861,-2.762568749436113 206.51412375620947,3.1991730185326617" fill="none" stroke="black" stroke-width="2" stroke-linecap="butt" stroke-linejoin="miter" stroke-miterlimit="10" transform="matrix(1, 0, 0, 1, 1, 19.50638757958899)"/><path d="M 0,0 L 8,4.62 L 0,9.24 z" fill="#000000" stroke="none" transform="matrix(1.9926351590170537, 0.17147922045857591, -0.17147922045857591, 1.9926351590170537, 191.36895890308315, 12.042012789564966)"/><path d="M 0,0 L 8,4.62 L 0,9.24 z" fill="none" stroke="#000000" stroke-width="1" stroke-linecap="butt" stroke-linejoin="miter" stroke-miterlimit="10" transform="matrix(1.9926351590170537, 0.17147922045857591, -0.17147922045857591, 1.9926351590170537, 191.36895890308315, 12.042012789564966)"/><g transform="matrix(1, 0, 0, 1, 46.043000898384776, 0)"><g transform="matrix(1, 0, 0, 1, 0, 0)"><g transform="matrix(1, 0, 0, 1, 0, 0)"><path d="M 0,4 A 4,4 0 0,1 3.999999999999999,0 L 107,0 A 4,4 0 0,1 111,3.999999999999999 L 111,36 A 4,4 0 0,1 107,40 L 4,40 A 4,4 0 0,1 0,36 z" fill="white" stroke="none" transform="matrix(1, 0, 0, 1, 1, 1)"/><path d="M 0,4 A 4,4 0 0,1 3.999999999999999,0 L 107,0 A 4,4 0 0,1 111,3.999999999999999 L 111,36 A 4,4 0 0,1 107,40 L 4,40 A 4,4 0 0,1 0,36 z" fill="none" stroke="#373f47" stroke-width="2" stroke-linecap="butt" stroke-linejoin="miter" stroke-miterlimit="10" transform="matrix(1, 0, 0, 1, 1, 1)"/><text x="51" y="12.557989883422852" style="font: 14px Lato" text-anchor="middle" fill="black" stroke="none" transform="matrix(1, 0, 0, 1, 6.2999999999999945, 6.011202697753906)">rdfs:comment</text><g transform="matrix(1, 0, 0, 1, 0, 0)" clip-path="url(#CLIP28646)"><path d="M 0,0 L 110,0 L 110,9 A 5,5 0 0,1 105,14 L 5,14 A 5,5 0 0,1 0,9 z" fill="#aaccff" stroke="none" transform="matrix(1, 0, 0, 1, 1.4999999999999971, 26.499999999999996)"/><path d="M 0,0 L 110,0 L 110,9 A 5,5 0 0,1 105,14 L 5,14 A 5,5 0 0,1 0,9 z" fill="none" stroke="#373f47" stroke-width="1" stroke-linecap="butt" stroke-linejoin="miter" stroke-miterlimit="10" transform="matrix(1, 0, 0, 1, 1.4999999999999971, 26.499999999999996)"/></g><g transform="matrix(1, 0, 0, 1, 0, 0)" clip-path="url(#CLIP28647)"><text x="15" y="8.969997024536134" style="font: 10px Lato" text-anchor="middle" fill="black" stroke="none" transform="matrix(1, 0, 0, 1, 41.5, 28.919999999999998)">0</text></g></g></g></g></g><g transform="matrix(1, 0, 0, 1, -466.4273227138542, -99.43278982677415)"><path d="M 0,148.93258684485386 C 33.76592005664122,94.13157299779556 73.47175268034846,44.7466805325578 119.74294303951444,0" fill="none" stroke="black" stroke-width="2" stroke-linecap="butt" stroke-linejoin="miter" stroke-miterlimit="10" transform="matrix(1, 0, 0, 1, 1, 22.012816002543953)"/><path d="M 0,0 L 8,4.62 L 0,9.24 z" fill="#000000" stroke="none" transform="matrix(1.4376993679650238, -1.3903310855163138, 1.3903310855163138, 1.4376993679650238, 102.09916879672637, 27.188459149434212)"/><path d="M 0,0 L 8,4.62 L 0,9.24 z" fill="none" stroke="#000000" stroke-width="1" stroke-linecap="butt" stroke-linejoin="miter" stroke-miterlimit="10" transform="matrix(1.4376993679650238, -1.3903310855163138, 1.3903310855163138, 1.4376993679650238, 102.09916879672637, 27.188459149434212)"/><g transform="matrix(1, 0, 0, 1, 2.1819951563104496, 72.7087344320332)"><g transform="matrix(1, 0, 0, 1, 0, 0)"><g transform="matrix(1, 0, 0, 1, 0, 0)"><path d="M 0,4 A 4,4 0 0,1 3.999999999999999,0 L 99,0 A 4,4 0 0,1 103,3.999999999999999 L 103,36 A 4,4 0 0,1 99,40 L 4,40 A 4,4 0 0,1 0,36 z" fill="white" stroke="none" transform="matrix(1, 0, 0, 1, 1, 1)"/><path d="M 0,4 A 4,4 0 0,1 3.999999999999999,0 L 99,0 A 4,4 0 0,1 103,3.999999999999999 L 103,36 A 4,4 0 0,1 99,40 L 4,40 A 4,4 0 0,1 0,36 z" fill="none" stroke="#373f47" stroke-width="2" stroke-linecap="butt" stroke-linejoin="miter" stroke-miterlimit="10" transform="matrix(1, 0, 0, 1, 1, 1)"/><text x="47" y="12.557989883422852" style="font: 14px Lato" text-anchor="middle" fill="black" stroke="none" transform="matrix(1, 0, 0, 1, 6.2999999999999945, 6.011202697753906)">rdfs:member</text><g transform="matrix(1, 0, 0, 1, 0, 0)" clip-path="url(#CLIP28648)"><path d="M 0,0 L 102,0 L 102,9 A 5,5 0 0,1 97,14 L 5,14 A 5,5 0 0,1 0,9 z" fill="#aaccff" stroke="none" transform="matrix(1, 0, 0, 1, 1.4999999999999971, 26.499999999999996)"/><path d="M 0,0 L 102,0 L 102,9 A 5,5 0 0,1 97,14 L 5,14 A 5,5 0 0,1 0,9 z" fill="none" stroke="#373f47" stroke-width="1" stroke-linecap="butt" stroke-linejoin="miter" stroke-miterlimit="10" transform="matrix(1, 0, 0, 1, 1.4999999999999971, 26.499999999999996)"/></g><g transform="matrix(1, 0, 0, 1, 0, 0)" clip-path="url(#CLIP28649)"><text x="15" y="8.969997024536134" style="font: 10px Lato" text-anchor="middle" fill="black" stroke="none" transform="matrix(1, 0, 0, 1, 37.5, 28.919999999999998)">0</text></g></g></g></g></g><g transform="matrix(1, 0, 0, 1, 35.26380313128144, -106.5457839679857)"><path d="M 138.6550832256011,71.23618980421614 C 88.95690346813262,53.82281743311406 43.09716826534623,30.26167041074806 0,0" fill="none" stroke="black" stroke-width="2" stroke-linecap="butt" stroke-linejoin="miter" stroke-miterlimit="10" transform="matrix(1, 0, 0, 1, 17.02408072096906, 24.066270970259037)"/><path d="M 0,0 L 8,4.62 L 0,9.24 z" fill="#000000" stroke="none" transform="matrix(-1.6367911028593232, -1.1493106131940836, 1.1493106131940836, -1.6367911028593232, 25.626990062316644, 41.39738607761882)"/><path d="M 0,0 L 8,4.62 L 0,9.24 z" fill="none" stroke="#000000" stroke-width="1" stroke-linecap="butt" stroke-linejoin="miter" stroke-miterlimit="10" transform="matrix(-1.6367911028593232, -1.1493106131940836, 1.1493106131940836, -1.6367911028593232, 25.626990062316644, 41.39738607761882)"/><g transform="matrix(1, 0, 0, 1, 13.876243024223761, 44.50247763723435)"><g transform="matrix(1, 0, 0, 1, 0, 0)"><g transform="matrix(1, 0, 0, 1, 0, 0)"><path d="M 0,4 A 4,4 0 0,1 3.999999999999999,0 L 131,0 A 4,4 0 0,1 135,3.999999999999999 L 135,36 A 4,4 0 0,1 131,40 L 4,40 A 4,4 0 0,1 0,36 z" fill="white" stroke="none" transform="matrix(1, 0, 0, 1, 1, 1)"/><path d="M 0,4 A 4,4 0 0,1 3.999999999999999,0 L 131,0 A 4,4 0 0,1 135,3.999999999999999 L 135,36 A 4,4 0 0,1 131,40 L 4,40 A 4,4 0 0,1 0,36 z" fill="none" stroke="#373f47" stroke-width="2" stroke-linecap="butt" stroke-linejoin="miter" stroke-miterlimit="10" transform="matrix(1, 0, 0, 1, 1, 1)"/><text x="63" y="12.557989883422852" style="font: 14px Lato" text-anchor="middle" fill="black" stroke="none" transform="matrix(1, 0, 0, 1, 6.300000000000009, 6.011202697753906)">rdfs:subClassOf</text><g transform="matrix(1, 0, 0, 1, 0, 0)" clip-path="url(#CLIP28650)"><path d="M 0,0 L 134,0 L 134,9 A 5,5 0 0,1 129,14 L 5,14 A 5,5 0 0,1 0,9 z" fill="#aaccff" stroke="none" transform="matrix(1, 0, 0, 1, 1.5000000000000113, 26.499999999999996)"/><path d="M 0,0 L 134,0 L 134,9 A 5,5 0 0,1 129,14 L 5,14 A 5,5 0 0,1 0,9 z" fill="none" stroke="#373f47" stroke-width="1" stroke-linecap="butt" stroke-linejoin="miter" stroke-miterlimit="10" transform="matrix(1, 0, 0, 1, 1.5000000000000113, 26.499999999999996)"/></g><g transform="matrix(1, 0, 0, 1, 0, 0)" clip-path="url(#CLIP28651)"><text x="15" y="8.969997024536134" style="font: 10px Lato" text-anchor="middle" fill="black" stroke="none" transform="matrix(1, 0, 0, 1, 53.500000000000014, 28.919999999999998)">0</text></g></g></g></g></g><g transform="matrix(1, 0, 0, 1, 126.34107671457716, 38.839254677907185)"><path d="M 0,126.92108454746719 C 14.34974516776154,81.44799533023726 34.56552713867413,39.537376221192105 61.2209751912161,0" fill="none" stroke="black" stroke-width="2" stroke-linecap="butt" stroke-linejoin="miter" stroke-miterlimit="10" transform="matrix(1, 0, 0, 1, 28.004150986184612, 24.146827878471065)"/><path d="M 0,0 L 8,4.62 L 0,9.24 z" fill="#000000" stroke="none" transform="matrix(1.1180153733931446, -1.6583249454966862, 1.6583249454966862, 1.1180153733931446, 72.0605342553643, 33.07735889011657)"/><path d="M 0,0 L 8,4.62 L 0,9.24 z" fill="none" stroke="#000000" stroke-width="1" stroke-linecap="butt" stroke-linejoin="miter" stroke-miterlimit="10" transform="matrix(1.1180153733931446, -1.6583249454966862, 1.6583249454966862, 1.1180153733931446, 72.0605342553643, 33.07735889011657)"/><g transform="matrix(1, 0, 0, 1, 0, 65.38147777869048)"><g transform="matrix(1, 0, 0, 1, 0, 0)"><g transform="matrix(1, 0, 0, 1, 0, 0)"><path d="M 0,4 A 4,4 0 0,1 3.999999999999999,0 L 99,0 A 4,4 0 0,1 103,3.999999999999999 L 103,36 A 4,4 0 0,1 99,40 L 4,40 A 4,4 0 0,1 0,36 z" fill="white" stroke="none" transform="matrix(1, 0, 0, 1, 1, 1)"/><path d="M 0,4 A 4,4 0 0,1 3.999999999999999,0 L 99,0 A 4,4 0 0,1 103,3.999999999999999 L 103,36 A 4,4 0 0,1 99,40 L 4,40 A 4,4 0 0,1 0,36 z" fill="none" stroke="#373f47" stroke-width="2" stroke-linecap="butt" stroke-linejoin="miter" stroke-miterlimit="10" transform="matrix(1, 0, 0, 1, 1, 1)"/><text x="47" y="12.557989883422852" style="font: 14px Lato" text-anchor="middle" fill="black" stroke="none" transform="matrix(1, 0, 0, 1, 6.2999999999999945, 6.011202697753906)">rdfs:member</text><g transform="matrix(1, 0, 0, 1, 0, 0)" clip-path="url(#CLIP28652)"><path d="M 0,0 L 102,0 L 102,9 A 5,5 0 0,1 97,14 L 5,14 A 5,5 0 0,1 0,9 z" fill="#aaccff" stroke="none" transform="matrix(1, 0, 0, 1, 1.4999999999999971, 26.499999999999996)"/><path d="M 0,0 L 102,0 L 102,9 A 5,5 0 0,1 97,14 L 5,14 A 5,5 0 0,1 0,9 z" fill="none" stroke="#373f47" stroke-width="1" stroke-linecap="butt" stroke-linejoin="miter" stroke-miterlimit="10" transform="matrix(1, 0, 0, 1, 1.4999999999999971, 26.499999999999996)"/></g><g transform="matrix(1, 0, 0, 1, 0, 0)" clip-path="url(#CLIP28653)"><text x="15" y="8.969997024536134" style="font: 10px Lato" text-anchor="middle" fill="black" stroke="none" transform="matrix(1, 0, 0, 1, 37.5, 28.919999999999998)">0</text></g></g></g></g></g><g transform="matrix(1, 0, 0, 1, -410.6694586108372, 142.74104438857532)"><path d="M 0,235.9334892069333 C 58.665725373041084,150.85309687085413 124.70372266138173,72.35817169449035 198.49149592116302,0" fill="none" stroke="black" stroke-width="2" stroke-linecap="butt" stroke-linejoin="miter" stroke-miterlimit="10" transform="matrix(1, 0, 0, 1, 1, 16.636836109423633)"/><path d="M 0,0 L 8,4.62 L 0,9.24 z" fill="#000000" stroke="none" transform="matrix(1.427979099690666, -1.4003127118064145, 1.4003127118064145, 1.427979099690666, 180.88422884524672, 21.94223071920728)"/><path d="M 0,0 L 8,4.62 L 0,9.24 z" fill="none" stroke="#000000" stroke-width="1" stroke-linecap="butt" stroke-linejoin="miter" stroke-miterlimit="10" transform="matrix(1.427979099690666, -1.4003127118064145, 1.4003127118064145, 1.427979099690666, 180.88422884524672, 21.94223071920728)"/><g transform="matrix(1, 0, 0, 1, 36.57498000305395, 109.83274797229447)"><g transform="matrix(1, 0, 0, 1, 0, 0)"><g transform="matrix(1, 0, 0, 1, 0, 0)"><path d="M 0,4 A 4,4 0 0,1 3.999999999999999,0 L 107,0 A 4,4 0 0,1 111,3.999999999999999 L 111,36 A 4,4 0 0,1 107,40 L 4,40 A 4,4 0 0,1 0,36 z" fill="white" stroke="none" transform="matrix(1, 0, 0, 1, 1, 1)"/><path d="M 0,4 A 4,4 0 0,1 3.999999999999999,0 L 107,0 A 4,4 0 0,1 111,3.999999999999999 L 111,36 A 4,4 0 0,1 107,40 L 4,40 A 4,4 0 0,1 0,36 z" fill="none" stroke="#373f47" stroke-width="2" stroke-linecap="butt" stroke-linejoin="miter" stroke-miterlimit="10" transform="matrix(1, 0, 0, 1, 1, 1)"/><text x="51" y="12.557989883422852" style="font: 14px Lato" text-anchor="middle" fill="black" stroke="none" transform="matrix(1, 0, 0, 1, 6.2999999999999945, 6.011202697753906)">rdfs:comment</text><g transform="matrix(1, 0, 0, 1, 0, 0)" clip-path="url(#CLIP28654)"><path d="M 0,0 L 110,0 L 110,9 A 5,5 0 0,1 105,14 L 5,14 A 5,5 0 0,1 0,9 z" fill="#aaccff" stroke="none" transform="matrix(1, 0, 0, 1, 1.4999999999999971, 26.499999999999996)"/><path d="M 0,0 L 110,0 L 110,9 A 5,5 0 0,1 105,14 L 5,14 A 5,5 0 0,1 0,9 z" fill="none" stroke="#373f47" stroke-width="1" stroke-linecap="butt" stroke-linejoin="miter" stroke-miterlimit="10" transform="matrix(1, 0, 0, 1, 1.4999999999999971, 26.499999999999996)"/></g><g transform="matrix(1, 0, 0, 1, 0, 0)" clip-path="url(#CLIP28655)"><text x="15" y="8.969997024536134" style="font: 10px Lato" text-anchor="middle" fill="black" stroke="none" transform="matrix(1, 0, 0, 1, 41.5, 28.919999999999998)">0</text></g></g></g></g></g><g transform="matrix(1, 0, 0, 1, -540.267593324759, 164.7637597687299)"><path d="M 32.36682020808411,196.6437001321338 C 13.472064552455038,132.26834508811731 2.734932264099882,67.03520175131774 0,0" fill="none" stroke="black" stroke-width="2" stroke-linecap="butt" stroke-linejoin="miter" stroke-miterlimit="10" transform="matrix(1, 0, 0, 1, 43.876523667781385, 25.183042203419383)"/><path d="M 0,0 L 8,4.62 L 0,9.24 z" fill="#000000" stroke="none" transform="matrix(-0.08152907321944942, -1.9983375616296606, 1.9983375616296606, -0.08152907321944942, 35.33720125541767, 42.54557579554535)"/><path d="M 0,0 L 8,4.62 L 0,9.24 z" fill="none" stroke="#000000" stroke-width="1" stroke-linecap="butt" stroke-linejoin="miter" stroke-miterlimit="10" transform="matrix(-0.08152907321944942, -1.9983375616296606, 1.9983375616296606, -0.08152907321944942, 35.33720125541767, 42.54557579554535)"/><g transform="matrix(1, 0, 0, 1, 0, 104.50233478472424)"><g transform="matrix(1, 0, 0, 1, 0, 0)"><g transform="matrix(1, 0, 0, 1, 0, 0)"><path d="M 0,4 A 4,4 0 0,1 3.999999999999999,0 L 99,0 A 4,4 0 0,1 103,3.999999999999999 L 103,36 A 4,4 0 0,1 99,40 L 4,40 A 4,4 0 0,1 0,36 z" fill="white" stroke="none" transform="matrix(1, 0, 0, 1, 1, 1)"/><path d="M 0,4 A 4,4 0 0,1 3.999999999999999,0 L 99,0 A 4,4 0 0,1 103,3.999999999999999 L 103,36 A 4,4 0 0,1 99,40 L 4,40 A 4,4 0 0,1 0,36 z" fill="none" stroke="#373f47" stroke-width="2" stroke-linecap="butt" stroke-linejoin="miter" stroke-miterlimit="10" transform="matrix(1, 0, 0, 1, 1, 1)"/><text x="47" y="12.557989883422852" style="font: 14px Lato" text-anchor="middle" fill="black" stroke="none" transform="matrix(1, 0, 0, 1, 6.2999999999999945, 6.011202697753906)">rdfs:member</text><g transform="matrix(1, 0, 0, 1, 0, 0)" clip-path="url(#CLIP28656)"><path d="M 0,0 L 102,0 L 102,9 A 5,5 0 0,1 97,14 L 5,14 A 5,5 0 0,1 0,9 z" fill="#aaccff" stroke="none" transform="matrix(1, 0, 0, 1, 1.4999999999999971, 26.499999999999996)"/><path d="M 0,0 L 102,0 L 102,9 A 5,5 0 0,1 97,14 L 5,14 A 5,5 0 0,1 0,9 z" fill="none" stroke="#373f47" stroke-width="1" stroke-linecap="butt" stroke-linejoin="miter" stroke-miterlimit="10" transform="matrix(1, 0, 0, 1, 1.4999999999999971, 26.499999999999996)"/></g><g transform="matrix(1, 0, 0, 1, 0, 0)" clip-path="url(#CLIP28657)"><text x="15" y="8.969997024536134" style="font: 10px Lato" text-anchor="middle" fill="black" stroke="none" transform="matrix(1, 0, 0, 1, 37.5, 28.919999999999998)">0</text></g></g></g></g></g><g transform="matrix(1, 0, 0, 1, -408.40380863879943, 447.56687771233953)"><path d="M 271.51251617085285,0 C 180.91029708120675,19.264105233508815 91.19626340706202,20.7659928970441 0,4.545345714958671" fill="none" stroke="black" stroke-width="2" stroke-linecap="butt" stroke-linejoin="miter" stroke-miterlimit="10" transform="matrix(1, 0, 0, 1, 25.41485895133539, 7.095253474799623)"/><path d="M 0,0 L 8,4.62 L 0,9.24 z" fill="#000000" stroke="none" transform="matrix(-1.9690953222667498, -0.35023365319055916, 0.35023365319055916, -1.9690953222667498, 40.53408971286238, 23.714805630750426)"/><path d="M 0,0 L 8,4.62 L 0,9.24 z" fill="none" stroke="#000000" stroke-width="1" stroke-linecap="butt" stroke-linejoin="miter" stroke-miterlimit="10" transform="matrix(-1.9690953222667498, -0.35023365319055916, 0.35023365319055916, -1.9690953222667498, 40.53408971286238, 23.714805630750426)"/><g transform="matrix(1, 0, 0, 1, 115.39388365579276, 2.674708488126843)"><g transform="matrix(1, 0, 0, 1, 0, 0)"><g transform="matrix(1, 0, 0, 1, 0, 0)"><path d="M 0,4 A 4,4 0 0,1 3.999999999999999,0 L 83,0 A 4,4 0 0,1 87,3.999999999999999 L 87,36 A 4,4 0 0,1 83,40 L 4,40 A 4,4 0 0,1 0,36 z" fill="white" stroke="none" transform="matrix(1, 0, 0, 1, 1, 1)"/><path d="M 0,4 A 4,4 0 0,1 3.999999999999999,0 L 83,0 A 4,4 0 0,1 87,3.999999999999999 L 87,36 A 4,4 0 0,1 83,40 L 4,40 A 4,4 0 0,1 0,36 z" fill="none" stroke="#373f47" stroke-width="2" stroke-linecap="butt" stroke-linejoin="miter" stroke-miterlimit="10" transform="matrix(1, 0, 0, 1, 1, 1)"/><text x="39" y="12.557989883422852" style="font: 14px Lato" text-anchor="middle" fill="black" stroke="none" transform="matrix(1, 0, 0, 1, 6.2999999999999945, 6.011202697753906)">rdfs:type</text><g transform="matrix(1, 0, 0, 1, 0, 0)" clip-path="url(#CLIP28658)"><path d="M 0,0 L 86,0 L 86,9 A 5,5 0 0,1 81,14 L 5,14 A 5,5 0 0,1 0,9 z" fill="#aaccff" stroke="none" transform="matrix(1, 0, 0, 1, 1.4999999999999971, 26.499999999999996)"/><path d="M 0,0 L 86,0 L 86,9 A 5,5 0 0,1 81,14 L 5,14 A 5,5 0 0,1 0,9 z" fill="none" stroke="#373f47" stroke-width="1" stroke-linecap="butt" stroke-linejoin="miter" stroke-miterlimit="10" transform="matrix(1, 0, 0, 1, 1.4999999999999971, 26.499999999999996)"/></g><g transform="matrix(1, 0, 0, 1, 0, 0)" clip-path="url(#CLIP28659)"><text x="15" y="8.969997024536134" style="font: 10px Lato" text-anchor="middle" fill="black" stroke="none" transform="matrix(1, 0, 0, 1, 29.499999999999996, 28.919999999999998)">0</text></g></g></g></g></g><g transform="matrix(1, 0, 0, 1, -178.22943842545453, 151.70751230137915)"><path d="M 73.8794849820029,207.04306239520446 C 41.127984178132806,140.77502997945265 16.598306490542853,72.03200085244782 0,0" fill="none" stroke="black" stroke-width="2" stroke-linecap="butt" stroke-linejoin="miter" stroke-miterlimit="10" transform="matrix(1, 0, 0, 1, 27.11770537649626, 25.22603529252597)"/><path d="M 0,0 L 8,4.62 L 0,9.24 z" fill="#000000" stroke="none" transform="matrix(-0.4490905765817029, -1.9489273085534806, 1.9489273085534806, -0.4490905765817029, 21.930931111923655, 43.866715879038026)"/><path d="M 0,0 L 8,4.62 L 0,9.24 z" fill="none" stroke="#000000" stroke-width="1" stroke-linecap="butt" stroke-linejoin="miter" stroke-miterlimit="10" transform="matrix(-0.4490905765817029, -1.9489273085534806, 1.9489273085534806, -0.4490905765817029, 21.930931111923655, 43.866715879038026)"/><g transform="matrix(1, 0, 0, 1, 0, 110.9090546538892)"><g transform="matrix(1, 0, 0, 1, 0, 0)"><g transform="matrix(1, 0, 0, 1, 0, 0)"><path d="M 0,4 A 4,4 0 0,1 3.999999999999999,0 L 107,0 A 4,4 0 0,1 111,3.999999999999999 L 111,36 A 4,4 0 0,1 107,40 L 4,40 A 4,4 0 0,1 0,36 z" fill="white" stroke="none" transform="matrix(1, 0, 0, 1, 1, 1)"/><path d="M 0,4 A 4,4 0 0,1 3.999999999999999,0 L 107,0 A 4,4 0 0,1 111,3.999999999999999 L 111,36 A 4,4 0 0,1 107,40 L 4,40 A 4,4 0 0,1 0,36 z" fill="none" stroke="#373f47" stroke-width="2" stroke-linecap="butt" stroke-linejoin="miter" stroke-miterlimit="10" transform="matrix(1, 0, 0, 1, 1, 1)"/><text x="51" y="12.557989883422852" style="font: 14px Lato" text-anchor="middle" fill="black" stroke="none" transform="matrix(1, 0, 0, 1, 6.2999999999999945, 6.011202697753906)">rdfs:comment</text><g transform="matrix(1, 0, 0, 1, 0, 0)" clip-path="url(#CLIP28660)"><path d="M 0,0 L 110,0 L 110,9 A 5,5 0 0,1 105,14 L 5,14 A 5,5 0 0,1 0,9 z" fill="#aaccff" stroke="none" transform="matrix(1, 0, 0, 1, 1.4999999999999971, 26.499999999999996)"/><path d="M 0,0 L 110,0 L 110,9 A 5,5 0 0,1 105,14 L 5,14 A 5,5 0 0,1 0,9 z" fill="none" stroke="#373f47" stroke-width="1" stroke-linecap="butt" stroke-linejoin="miter" stroke-miterlimit="10" transform="matrix(1, 0, 0, 1, 1.4999999999999971, 26.499999999999996)"/></g><g transform="matrix(1, 0, 0, 1, 0, 0)" clip-path="url(#CLIP28661)"><text x="15" y="8.969997024536134" style="font: 10px Lato" text-anchor="middle" fill="black" stroke="none" transform="matrix(1, 0, 0, 1, 41.5, 28.919999999999998)">0</text></g></g></g></g></g><g transform="matrix(1, 0, 0, 1, -21.18791483596287, 278.9260808504458)"><path d="M 0,99.32171743920446 C 27.283955104446875,61.36081038171841 58.9586444673292,28.575488893758802 95.95710531708941,0" fill="none" stroke="black" stroke-width="2" stroke-linecap="butt" stroke-linejoin="miter" stroke-miterlimit="10" transform="matrix(1, 0, 0, 1, 9.664386995947794, 11.13473861072763)"/><path d="M 0,0 L 8,4.62 L 0,9.24 z" fill="#000000" stroke="none" transform="matrix(1.5828645232358323, -1.2225137631460028, 1.2225137631460028, 1.5828645232358323, 86.51913027979809, 14.21327150011911)"/><path d="M 0,0 L 8,4.62 L 0,9.24 z" fill="none" stroke="#000000" stroke-width="1" stroke-linecap="butt" stroke-linejoin="miter" stroke-miterlimit="10" transform="matrix(1.5828645232358323, -1.2225137631460028, 1.2225137631460028, 1.5828645232358323, 86.51913027979809, 14.21327150011911)"/><g transform="matrix(1, 0, 0, 1, 0, 37.27606551893215)"><g transform="matrix(1, 0, 0, 1, 0, 0)"><g transform="matrix(1, 0, 0, 1, 0, 0)"><path d="M 0,4 A 4,4 0 0,1 3.999999999999999,0 L 99,0 A 4,4 0 0,1 103,3.999999999999999 L 103,36 A 4,4 0 0,1 99,40 L 4,40 A 4,4 0 0,1 0,36 z" fill="white" stroke="none" transform="matrix(1, 0, 0, 1, 1, 1)"/><path d="M 0,4 A 4,4 0 0,1 3.999999999999999,0 L 99,0 A 4,4 0 0,1 103,3.999999999999999 L 103,36 A 4,4 0 0,1 99,40 L 4,40 A 4,4 0 0,1 0,36 z" fill="none" stroke="#373f47" stroke-width="2" stroke-linecap="butt" stroke-linejoin="miter" stroke-miterlimit="10" transform="matrix(1, 0, 0, 1, 1, 1)"/><text x="47" y="12.557989883422852" style="font: 14px Lato" text-anchor="middle" fill="black" stroke="none" transform="matrix(1, 0, 0, 1, 6.2999999999999945, 6.011202697753906)">rdfs:member</text><g transform="matrix(1, 0, 0, 1, 0, 0)" clip-path="url(#CLIP28662)"><path d="M 0,0 L 102,0 L 102,9 A 5,5 0 0,1 97,14 L 5,14 A 5,5 0 0,1 0,9 z" fill="#aaccff" stroke="none" transform="matrix(1, 0, 0, 1, 1.4999999999999971, 26.499999999999996)"/><path d="M 0,0 L 102,0 L 102,9 A 5,5 0 0,1 97,14 L 5,14 A 5,5 0 0,1 0,9 z" fill="none" stroke="#373f47" stroke-width="1" stroke-linecap="butt" stroke-linejoin="miter" stroke-miterlimit="10" transform="matrix(1, 0, 0, 1, 1.4999999999999971, 26.499999999999996)"/></g><g transform="matrix(1, 0, 0, 1, 0, 0)" clip-path="url(#CLIP28663)"><text x="15" y="8.969997024536134" style="font: 10px Lato" text-anchor="middle" fill="black" stroke="none" transform="matrix(1, 0, 0, 1, 37.5, 28.919999999999998)">0</text></g></g></g></g></g><g transform="matrix(1, 0, 0, 1, -144.12501306739242, -63.474911708002196)"><path d="M 92.16025392723839,0 C 67.2975390650559,47.81554669035444 36.805419371711835,90.92390807097954 0,130.2919433342242" fill="none" stroke="black" stroke-width="2" stroke-linecap="butt" stroke-linejoin="miter" stroke-miterlimit="10" transform="matrix(1, 0, 0, 1, 22.35003265438018, 1)"/><path d="M 0,0 L 8,4.62 L 0,9.24 z" fill="#000000" stroke="none" transform="matrix(-1.3658640964550173, 1.4609638154366176, -1.4609638154366176, -1.3658640964550173, 40.709530301565, 125.18404302863512)"/><path d="M 0,0 L 8,4.62 L 0,9.24 z" fill="none" stroke="#000000" stroke-width="1" stroke-linecap="butt" stroke-linejoin="miter" stroke-miterlimit="10" transform="matrix(-1.3658640964550173, 1.4609638154366176, -1.4609638154366176, -1.3658640964550173, 40.709530301565, 125.18404302863512)"/><g transform="matrix(1, 0, 0, 1, 14.908673809072887, 49.31378845227826)"><g transform="matrix(1, 0, 0, 1, 0, 0)"><g transform="matrix(1, 0, 0, 1, 0, 0)"><path d="M 0,4 A 4,4 0 0,1 3.999999999999999,0 L 107,0 A 4,4 0 0,1 111,3.999999999999999 L 111,36 A 4,4 0 0,1 107,40 L 4,40 A 4,4 0 0,1 0,36 z" fill="white" stroke="none" transform="matrix(1, 0, 0, 1, 1, 1)"/><path d="M 0,4 A 4,4 0 0,1 3.999999999999999,0 L 107,0 A 4,4 0 0,1 111,3.999999999999999 L 111,36 A 4,4 0 0,1 107,40 L 4,40 A 4,4 0 0,1 0,36 z" fill="none" stroke="#373f47" stroke-width="2" stroke-linecap="butt" stroke-linejoin="miter" stroke-miterlimit="10" transform="matrix(1, 0, 0, 1, 1, 1)"/><text x="51" y="12.557989883422852" style="font: 14px Lato" text-anchor="middle" fill="black" stroke="none" transform="matrix(1, 0, 0, 1, 6.2999999999999945, 6.011202697753906)">rdfs:comment</text><g transform="matrix(1, 0, 0, 1, 0, 0)" clip-path="url(#CLIP28664)"><path d="M 0,0 L 110,0 L 110,9 A 5,5 0 0,1 105,14 L 5,14 A 5,5 0 0,1 0,9 z" fill="#aaccff" stroke="none" transform="matrix(1, 0, 0, 1, 1.4999999999999971, 26.499999999999996)"/><path d="M 0,0 L 110,0 L 110,9 A 5,5 0 0,1 105,14 L 5,14 A 5,5 0 0,1 0,9 z" fill="none" stroke="#373f47" stroke-width="1" stroke-linecap="butt" stroke-linejoin="miter" stroke-miterlimit="10" transform="matrix(1, 0, 0, 1, 1.4999999999999971, 26.499999999999996)"/></g><g transform="matrix(1, 0, 0, 1, 0, 0)" clip-path="url(#CLIP28665)"><text x="15" y="8.969997024536134" style="font: 10px Lato" text-anchor="middle" fill="black" stroke="none" transform="matrix(1, 0, 0, 1, 41.5, 28.919999999999998)">0</text></g></g></g></g></g><g transform="matrix(1, 0, 0, 1, -602.8417461726045, -188.5894642826179)"><path d="M 214.27016919610907,51.21588138523603 C 140.71145523207377,42.45923784022813 69.56760914273349,25.45409523791716 0,0" fill="none" stroke="black" stroke-width="2" stroke-linecap="butt" stroke-linejoin="miter" stroke-miterlimit="10" transform="matrix(1, 0, 0, 1, 25.3422924183374, 7.897684322083197)"/><path d="M 0,0 L 8,4.62 L 0,9.24 z" fill="#000000" stroke="none" transform="matrix(-1.8782236552119118, -0.6872233268759181, 0.6872233268759181, -1.8782236552119118, 38.132221717471914, 22.41647588760754)"/><path d="M 0,0 L 8,4.62 L 0,9.24 z" fill="none" stroke="#000000" stroke-width="1" stroke-linecap="butt" stroke-linejoin="miter" stroke-miterlimit="10" transform="matrix(-1.8782236552119118, -0.6872233268759181, 0.6872233268759181, -1.8782236552119118, 38.132221717471914, 22.41647588760754)"/><g transform="matrix(1, 0, 0, 1, 92.98071270840373, 19.767169399542187)"><g transform="matrix(1, 0, 0, 1, 0, 0)"><g transform="matrix(1, 0, 0, 1, 0, 0)"><path d="M 0,4 A 4,4 0 0,1 3.999999999999999,0 L 67,0 A 4,4 0 0,1 71,3.999999999999999 L 71,36 A 4,4 0 0,1 67,40 L 4,40 A 4,4 0 0,1 0,36 z" fill="white" stroke="none" transform="matrix(1, 0, 0, 1, 1, 1)"/><path d="M 0,4 A 4,4 0 0,1 3.999999999999999,0 L 67,0 A 4,4 0 0,1 71,3.999999999999999 L 71,36 A 4,4 0 0,1 67,40 L 4,40 A 4,4 0 0,1 0,36 z" fill="none" stroke="#373f47" stroke-width="2" stroke-linecap="butt" stroke-linejoin="miter" stroke-miterlimit="10" transform="matrix(1, 0, 0, 1, 1, 1)"/><text x="31" y="12.557989883422852" style="font: 14px Lato" text-anchor="middle" fill="black" stroke="none" transform="matrix(1, 0, 0, 1, 6.2999999999999945, 6.011202697753906)">baseUrl</text><g transform="matrix(1, 0, 0, 1, 0, 0)" clip-path="url(#CLIP28666)"><path d="M 0,0 L 70,0 L 70,9 A 5,5 0 0,1 65,14 L 5,14 A 5,5 0 0,1 0,9 z" fill="#aaccff" stroke="none" transform="matrix(1, 0, 0, 1, 1.4999999999999971, 26.499999999999996)"/><path d="M 0,0 L 70,0 L 70,9 A 5,5 0 0,1 65,14 L 5,14 A 5,5 0 0,1 0,9 z" fill="none" stroke="#373f47" stroke-width="1" stroke-linecap="butt" stroke-linejoin="miter" stroke-miterlimit="10" transform="matrix(1, 0, 0, 1, 1.4999999999999971, 26.499999999999996)"/></g><g transform="matrix(1, 0, 0, 1, 0, 0)" clip-path="url(#CLIP28667)"><text x="15" y="8.969997024536134" style="font: 10px Lato" text-anchor="middle" fill="black" stroke="none" transform="matrix(1, 0, 0, 1, 21.499999999999996, 28.919999999999998)">0</text></g></g></g></g></g><g transform="matrix(1, 0, 0, 1, -638.9786486524499, -164.00506230298674)"><path d="M 89.18795305597166,211.50075932476577 C 51.34720579507518,144.2717886435165 21.72474723768778,74.02494180735233 0,0" fill="none" stroke="black" stroke-width="2" stroke-linecap="butt" stroke-linejoin="miter" stroke-miterlimit="10" transform="matrix(1, 0, 0, 1, 19.398568536535272, 22.732138248381055)"/><path d="M 0,0 L 8,4.62 L 0,9.24 z" fill="#000000" stroke="none" transform="matrix(-0.5632040814104301, -1.9190625739362002, 1.9190625739362002, -0.5632040814104301, 15.319734136938681, 41.646172982954944)"/><path d="M 0,0 L 8,4.62 L 0,9.24 z" fill="none" stroke="#000000" stroke-width="1" stroke-linecap="butt" stroke-linejoin="miter" stroke-miterlimit="10" transform="matrix(-0.5632040814104301, -1.9190625739362002, 1.9190625739362002, -0.5632040814104301, 15.319734136938681, 41.646172982954944)"/><g transform="matrix(1, 0, 0, 1, 35.94904505581787, 111.0310070830526)"><g transform="matrix(1, 0, 0, 1, 0, 0)"><g transform="matrix(1, 0, 0, 1, 0, 0)"><path d="M 0,4 A 4,4 0 0,1 3.999999999999999,0 L 35,0 A 4,4 0 0,1 39,3.999999999999999 L 39,36 A 4,4 0 0,1 35,40 L 4,40 A 4,4 0 0,1 0,36 z" fill="white" stroke="none" transform="matrix(1, 0, 0, 1, 1, 1)"/><path d="M 0,4 A 4,4 0 0,1 3.999999999999999,0 L 35,0 A 4,4 0 0,1 39,3.999999999999999 L 39,36 A 4,4 0 0,1 35,40 L 4,40 A 4,4 0 0,1 0,36 z" fill="none" stroke="#373f47" stroke-width="2" stroke-linecap="butt" stroke-linejoin="miter" stroke-miterlimit="10" transform="matrix(1, 0, 0, 1, 1, 1)"/><text x="15" y="12.557989883422852" style="font: 14px Lato" text-anchor="middle" fill="black" stroke="none" transform="matrix(1, 0, 0, 1, 6.299999999999998, 6.011202697753906)">url</text><g transform="matrix(1, 0, 0, 1, 0, 0)" clip-path="url(#CLIP28668)"><path d="M 0,0 L 38,0 L 38,9 A 5,5 0 0,1 33,14 L 5,14 A 5,5 0 0,1 0,9 z" fill="#aaccff" stroke="none" transform="matrix(1, 0, 0, 1, 1.4999999999999971, 26.499999999999996)"/><path d="M 0,0 L 38,0 L 38,9 A 5,5 0 0,1 33,14 L 5,14 A 5,5 0 0,1 0,9 z" fill="none" stroke="#373f47" stroke-width="1" stroke-linecap="butt" stroke-linejoin="miter" stroke-miterlimit="10" transform="matrix(1, 0, 0, 1, 1.4999999999999971, 26.499999999999996)"/></g><g transform="matrix(1, 0, 0, 1, 0, 0)" clip-path="url(#CLIP28669)"><text x="15" y="8.969997024536134" style="font: 10px Lato" text-anchor="middle" fill="black" stroke="none" transform="matrix(1, 0, 0, 1, 5.499999999999997, 28.919999999999998)">0</text></g></g></g></g></g><g transform="matrix(1, 0, 0, 1, -908.4975646640278, 154.83451119568625)"><path d="M 327.6207121667429,0 C 221.61925548833494,55.85417519971392 115.41415266130764,67.20968626445901 0,35.02939616854616" fill="none" stroke="black" stroke-width="2" stroke-linecap="butt" stroke-linejoin="miter" stroke-miterlimit="10" transform="matrix(1, 0, 0, 1, 25.256167745910926, 1)"/><path d="M 0,0 L 8,4.62 L 0,9.24 z" fill="#000000" stroke="none" transform="matrix(-1.9265149032068583, -0.5371594993313158, 0.5371594993313158, -1.9265149032068583, 39.14986753625854, 49.495750765678025)"/><path d="M 0,0 L 8,4.62 L 0,9.24 z" fill="none" stroke="#000000" stroke-width="1" stroke-linecap="butt" stroke-linejoin="miter" stroke-miterlimit="10" transform="matrix(-1.9265149032068583, -0.5371594993313158, 0.5371594993313158, -1.9265149032068583, 39.14986753625854, 49.495750765678025)"/><g transform="matrix(1, 0, 0, 1, 154.59628482286982, 31.527622570133104)"><g transform="matrix(1, 0, 0, 1, 0, 0)"><g transform="matrix(1, 0, 0, 1, 0, 0)"><path d="M 0,4 A 4,4 0 0,1 3.999999999999999,0 L 67,0 A 4,4 0 0,1 71,3.999999999999999 L 71,36 A 4,4 0 0,1 67,40 L 4,40 A 4,4 0 0,1 0,36 z" fill="white" stroke="none" transform="matrix(1, 0, 0, 1, 1, 1)"/><path d="M 0,4 A 4,4 0 0,1 3.999999999999999,0 L 67,0 A 4,4 0 0,1 71,3.999999999999999 L 71,36 A 4,4 0 0,1 67,40 L 4,40 A 4,4 0 0,1 0,36 z" fill="none" stroke="#373f47" stroke-width="2" stroke-linecap="butt" stroke-linejoin="miter" stroke-miterlimit="10" transform="matrix(1, 0, 0, 1, 1, 1)"/><text x="31" y="12.557989883422852" style="font: 14px Lato" text-anchor="middle" fill="black" stroke="none" transform="matrix(1, 0, 0, 1, 6.2999999999999945, 6.011202697753906)">version</text><g transform="matrix(1, 0, 0, 1, 0, 0)" clip-path="url(#CLIP28670)"><path d="M 0,0 L 70,0 L 70,9 A 5,5 0 0,1 65,14 L 5,14 A 5,5 0 0,1 0,9 z" fill="#aaccff" stroke="none" transform="matrix(1, 0, 0, 1, 1.4999999999999971, 26.499999999999996)"/><path d="M 0,0 L 70,0 L 70,9 A 5,5 0 0,1 65,14 L 5,14 A 5,5 0 0,1 0,9 z" fill="none" stroke="#373f47" stroke-width="1" stroke-linecap="butt" stroke-linejoin="miter" stroke-miterlimit="10" transform="matrix(1, 0, 0, 1, 1.4999999999999971, 26.499999999999996)"/></g><g transform="matrix(1, 0, 0, 1, 0, 0)" clip-path="url(#CLIP28671)"><text x="15" y="8.969997024536134" style="font: 10px Lato" text-anchor="middle" fill="black" stroke="none" transform="matrix(1, 0, 0, 1, 21.499999999999996, 28.919999999999998)">0</text></g></g></g></g></g><g transform="matrix(1, 0, 0, 1, -906.5797918674323, 130.78848124887986)"><path d="M 318.6181119426177,0 C 212.48697956522517,12.060597081450084 106.28187673819787,23.41610814619517 0,34.06683294196537" fill="none" stroke="black" stroke-width="2" stroke-linecap="butt" stroke-linejoin="miter" stroke-miterlimit="10" transform="matrix(1, 0, 0, 1, 25.370959827063256, 2.4378814218873686)"/><path d="M 0,0 L 8,4.62 L 0,9.24 z" fill="#000000" stroke="none" transform="matrix(-1.9900325556364797, 0.19942524290305227, -0.19942524290305227, -1.9900325556364797, 43.20758117218543, 44.00355020621734)"/><path d="M 0,0 L 8,4.62 L 0,9.24 z" fill="none" stroke="#000000" stroke-width="1" stroke-linecap="butt" stroke-linejoin="miter" stroke-miterlimit="10" transform="matrix(-1.9900325556364797, 0.19942524290305227, -0.19942524290305227, -1.9900325556364797, 43.20758117218543, 44.00355020621734)"/><g transform="matrix(1, 0, 0, 1, 150.7365449336741, 0)"><g transform="matrix(1, 0, 0, 1, 0, 0)"><g transform="matrix(1, 0, 0, 1, 0, 0)"><path d="M 0,4 A 4,4 0 0,1 3.999999999999999,0 L 59,0 A 4,4 0 0,1 63,3.999999999999999 L 63,36 A 4,4 0 0,1 59,40 L 4,40 A 4,4 0 0,1 0,36 z" fill="white" stroke="none" transform="matrix(1, 0, 0, 1, 1, 1)"/><path d="M 0,4 A 4,4 0 0,1 3.999999999999999,0 L 59,0 A 4,4 0 0,1 63,3.999999999999999 L 63,36 A 4,4 0 0,1 59,40 L 4,40 A 4,4 0 0,1 0,36 z" fill="none" stroke="#373f47" stroke-width="2" stroke-linecap="butt" stroke-linejoin="miter" stroke-miterlimit="10" transform="matrix(1, 0, 0, 1, 1, 1)"/><text x="27" y="12.557989883422852" style="font: 14px Lato" text-anchor="middle" fill="black" stroke="none" transform="matrix(1, 0, 0, 1, 6.2999999999999945, 6.011202697753906)">format</text><g transform="matrix(1, 0, 0, 1, 0, 0)" clip-path="url(#CLIP28672)"><path d="M 0,0 L 62,0 L 62,9 A 5,5 0 0,1 57,14 L 5,14 A 5,5 0 0,1 0,9 z" fill="#aaccff" stroke="none" transform="matrix(1, 0, 0, 1, 1.4999999999999971, 26.499999999999996)"/><path d="M 0,0 L 62,0 L 62,9 A 5,5 0 0,1 57,14 L 5,14 A 5,5 0 0,1 0,9 z" fill="none" stroke="#373f47" stroke-width="1" stroke-linecap="butt" stroke-linejoin="miter" stroke-miterlimit="10" transform="matrix(1, 0, 0, 1, 1.4999999999999971, 26.499999999999996)"/></g><g transform="matrix(1, 0, 0, 1, 0, 0)" clip-path="url(#CLIP28673)"><text x="15" y="8.969997024536134" style="font: 10px Lato" text-anchor="middle" fill="black" stroke="none" transform="matrix(1, 0, 0, 1, 17.499999999999996, 28.919999999999998)">0</text></g></g></g></g></g><g transform="matrix(1, 0, 0, 1, -912.7904982265635, 74.24317445847703)"><path d="M 327.35254264800574,17.243451987643596 C 212.1566463692401,-14.16393951591364 105.95154354221279,-2.8084284511685524 0,52.244175316032454" fill="none" stroke="black" stroke-width="2" stroke-linecap="butt" stroke-linejoin="miter" stroke-miterlimit="10" transform="matrix(1, 0, 0, 1, 24.691755315106995, 17.67868457469632)"/><path d="M 0,0 L 8,4.62 L 0,9.24 z" fill="#000000" stroke="none" transform="matrix(-1.7747228409149947, 0.9221490323882635, -0.9221490323882635, -1.7747228409149947, 44.037227992518226, 70.2838126404558)"/><path d="M 0,0 L 8,4.62 L 0,9.24 z" fill="none" stroke="#000000" stroke-width="1" stroke-linecap="butt" stroke-linejoin="miter" stroke-miterlimit="10" transform="matrix(-1.7747228409149947, 0.9221490323882635, -0.9221490323882635, -1.7747228409149947, 44.037227992518226, 70.2838126404558)"/><g transform="matrix(1, 0, 0, 1, 138.90139436290258, 0)"><g transform="matrix(1, 0, 0, 1, 0, 0)"><g transform="matrix(1, 0, 0, 1, 0, 0)"><path d="M 0,4 A 4,4 0 0,1 3.999999999999999,0 L 83,0 A 4,4 0 0,1 87,3.999999999999999 L 87,36 A 4,4 0 0,1 83,40 L 4,40 A 4,4 0 0,1 0,36 z" fill="white" stroke="none" transform="matrix(1, 0, 0, 1, 1, 1)"/><path d="M 0,4 A 4,4 0 0,1 3.999999999999999,0 L 83,0 A 4,4 0 0,1 87,3.999999999999999 L 87,36 A 4,4 0 0,1 83,40 L 4,40 A 4,4 0 0,1 0,36 z" fill="none" stroke="#373f47" stroke-width="2" stroke-linecap="butt" stroke-linejoin="miter" stroke-miterlimit="10" transform="matrix(1, 0, 0, 1, 1, 1)"/><text x="39" y="12.557989883422852" style="font: 14px Lato" text-anchor="middle" fill="black" stroke="none" transform="matrix(1, 0, 0, 1, 6.2999999999999945, 6.011202697753906)">timestamp</text><g transform="matrix(1, 0, 0, 1, 0, 0)" clip-path="url(#CLIP28674)"><path d="M 0,0 L 86,0 L 86,9 A 5,5 0 0,1 81,14 L 5,14 A 5,5 0 0,1 0,9 z" fill="#aaccff" stroke="none" transform="matrix(1, 0, 0, 1, 1.4999999999999971, 26.499999999999996)"/><path d="M 0,0 L 86,0 L 86,9 A 5,5 0 0,1 81,14 L 5,14 A 5,5 0 0,1 0,9 z" fill="none" stroke="#373f47" stroke-width="1" stroke-linecap="butt" stroke-linejoin="miter" stroke-miterlimit="10" transform="matrix(1, 0, 0, 1, 1.4999999999999971, 26.499999999999996)"/></g><g transform="matrix(1, 0, 0, 1, 0, 0)" clip-path="url(#CLIP28675)"><text x="15" y="8.969997024536134" style="font: 10px Lato" text-anchor="middle" fill="black" stroke="none" transform="matrix(1, 0, 0, 1, 29.499999999999996, 28.919999999999998)">0</text></g></g></g></g></g><g transform="matrix(1, 0, 0, 1, -237.15680617250828, -154.67749924468032)"><path d="M 0,4.952972179866379 C 57.81584754658462,-2.1591522482123935 115.01371003030386,-1.6526156953791258 172.69453156643945,6.482331650908179" fill="none" stroke="black" stroke-width="2" stroke-linecap="butt" stroke-linejoin="miter" stroke-miterlimit="10" transform="matrix(1, 0, 0, 1, 1, 20)"/><path d="M 0,0 L 8,4.62 L 0,9.24 z" fill="#000000" stroke="none" transform="matrix(1.9804013489631558, 0.27930359293233753, -0.27930359293233753, 1.9804013489631558, 158.1515026996, 14.95879687877353)"/><path d="M 0,0 L 8,4.62 L 0,9.24 z" fill="none" stroke="#000000" stroke-width="1" stroke-linecap="butt" stroke-linejoin="miter" stroke-miterlimit="10" transform="matrix(1.9804013489631558, 0.27930359293233753, -0.27930359293233753, 1.9804013489631558, 158.1515026996, 14.95879687877353)"/><g transform="matrix(1, 0, 0, 1, 33.3979005371381, 0)"><g transform="matrix(1, 0, 0, 1, 0, 0)"><g transform="matrix(1, 0, 0, 1, 0, 0)"><path d="M 0,4 A 4,4 0 0,1 3.999999999999999,0 L 99,0 A 4,4 0 0,1 103,3.999999999999999 L 103,36 A 4,4 0 0,1 99,40 L 4,40 A 4,4 0 0,1 0,36 z" fill="white" stroke="none" transform="matrix(1, 0, 0, 1, 1, 1)"/><path d="M 0,4 A 4,4 0 0,1 3.999999999999999,0 L 99,0 A 4,4 0 0,1 103,3.999999999999999 L 103,36 A 4,4 0 0,1 99,40 L 4,40 A 4,4 0 0,1 0,36 z" fill="none" stroke="#373f47" stroke-width="2" stroke-linecap="butt" stroke-linejoin="miter" stroke-miterlimit="10" transform="matrix(1, 0, 0, 1, 1, 1)"/><text x="47" y="12.557989883422852" style="font: 14px Lato" text-anchor="middle" fill="black" stroke="none" transform="matrix(1, 0, 0, 1, 6.2999999999999945, 6.011202697753906)">comesFromDs</text><g transform="matrix(1, 0, 0, 1, 0, 0)" clip-path="url(#CLIP28676)"><path d="M 0,0 L 102,0 L 102,9 A 5,5 0 0,1 97,14 L 5,14 A 5,5 0 0,1 0,9 z" fill="#aaccff" stroke="none" transform="matrix(1, 0, 0, 1, 1.4999999999999971, 26.499999999999996)"/><path d="M 0,0 L 102,0 L 102,9 A 5,5 0 0,1 97,14 L 5,14 A 5,5 0 0,1 0,9 z" fill="none" stroke="#373f47" stroke-width="1" stroke-linecap="butt" stroke-linejoin="miter" stroke-miterlimit="10" transform="matrix(1, 0, 0, 1, 1.4999999999999971, 26.499999999999996)"/></g><g transform="matrix(1, 0, 0, 1, 0, 0)" clip-path="url(#CLIP28677)"><text x="15" y="8.969997024536134" style="font: 10px Lato" text-anchor="middle" fill="black" stroke="none" transform="matrix(1, 0, 0, 1, 37.5, 28.919999999999998)">0</text></g></g></g></g></g><g transform="matrix(1, 0, 0, 1, 14.07029379428414, 434.6585746697699)"><path d="M 0,0 C 72.06570391735316,2.958831146028956 142.35240962002797,14.218345436995548 211.73619097245754,33.9188847213037" fill="none" stroke="black" stroke-width="2" stroke-linecap="butt" stroke-linejoin="miter" stroke-miterlimit="10" transform="matrix(1, 0, 0, 1, 1, 9.318698191202884)"/><path d="M 0,0 L 8,4.62 L 0,9.24 z" fill="#000000" stroke="none" transform="matrix(1.9239491441196925, 0.5462780343754474, -0.5462780343754474, 1.9239491441196925, 198.90642776625472, 29.7055745744823)"/><path d="M 0,0 L 8,4.62 L 0,9.24 z" fill="none" stroke="#000000" stroke-width="1" stroke-linecap="butt" stroke-linejoin="miter" stroke-miterlimit="10" transform="matrix(1.9239491441196925, 0.5462780343754474, -0.5462780343754474, 1.9239491441196925, 198.90642776625472, 29.7055745744823)"/><g transform="matrix(1, 0, 0, 1, 65.87381644807513, 0)"><g transform="matrix(1, 0, 0, 1, 0, 0)"><g transform="matrix(1, 0, 0, 1, 0, 0)"><path d="M 0,4 A 4,4 0 0,1 3.999999999999999,0 L 75,0 A 4,4 0 0,1 79,3.999999999999999 L 79,36 A 4,4 0 0,1 75,40 L 4,40 A 4,4 0 0,1 0,36 z" fill="white" stroke="none" transform="matrix(1, 0, 0, 1, 1, 1)"/><path d="M 0,4 A 4,4 0 0,1 3.999999999999999,0 L 75,0 A 4,4 0 0,1 79,3.999999999999999 L 79,36 A 4,4 0 0,1 75,40 L 4,40 A 4,4 0 0,1 0,36 z" fill="none" stroke="#373f47" stroke-width="2" stroke-linecap="butt" stroke-linejoin="miter" stroke-miterlimit="10" transform="matrix(1, 0, 0, 1, 1, 1)"/><text x="35" y="12.557989883422852" style="font: 14px Lato" text-anchor="middle" fill="black" stroke="none" transform="matrix(1, 0, 0, 1, 6.2999999999999945, 6.011202697753906)">dataType</text><g transform="matrix(1, 0, 0, 1, 0, 0)" clip-path="url(#CLIP28678)"><path d="M 0,0 L 78,0 L 78,9 A 5,5 0 0,1 73,14 L 5,14 A 5,5 0 0,1 0,9 z" fill="#aaccff" stroke="none" transform="matrix(1, 0, 0, 1, 1.4999999999999971, 26.499999999999996)"/><path d="M 0,0 L 78,0 L 78,9 A 5,5 0 0,1 73,14 L 5,14 A 5,5 0 0,1 0,9 z" fill="none" stroke="#373f47" stroke-width="1" stroke-linecap="butt" stroke-linejoin="miter" stroke-miterlimit="10" transform="matrix(1, 0, 0, 1, 1.4999999999999971, 26.499999999999996)"/></g><g transform="matrix(1, 0, 0, 1, 0, 0)" clip-path="url(#CLIP28679)"><text x="15" y="8.969997024536134" style="font: 10px Lato" text-anchor="middle" fill="black" stroke="none" transform="matrix(1, 0, 0, 1, 25.499999999999996, 28.919999999999998)">0</text></g></g></g></g></g><g transform="matrix(1, 0, 0, 1, -22.265092091450413, 498.08955443996643)"><path d="M 0,0 C 12.231093502159258,25.57685007163394 16.491723590569183,50.11238309299057 6.801283638355827,78.96249162194766" fill="none" stroke="black" stroke-width="2" stroke-linecap="butt" stroke-linejoin="miter" stroke-miterlimit="10" transform="matrix(1, 0, 0, 1, 1, 1)"/></g><g transform="matrix(1, 0, 0, 1, -75.6982165934634, 482.9670835110501)"><path d="M 18.26180854805338,73.19695862945184 C 2.122608993788944,52.73855447565256 -2.1380210946209814,28.203021454295936 0.7541214838004606,0" fill="none" stroke="black" stroke-width="2" stroke-linecap="butt" stroke-linejoin="miter" stroke-miterlimit="10" transform="matrix(1, 0, 0, 1, 19.539477286762843, 22.050847965145888)"/><path d="M 0,0 L 8,4.62 L 0,9.24 z" fill="black" stroke="none" transform="matrix(0.20402457071883032, -1.9895662779970404, 1.9895662779970404, 0.20402457071883032, 9.36759371510692, 38.01956781139974)"/><path d="M 0,0 L 8,4.62 L 0,9.24 z" fill="none" stroke="black" stroke-width="1" stroke-linecap="butt" stroke-linejoin="miter" stroke-miterlimit="10" transform="matrix(0.20402457071883032, -1.9895662779970404, 1.9895662779970404, 0.20402457071883032, 9.36759371510692, 38.01956781139974)"/></g><g transform="matrix(1, 0, 0, 1, -408.5856648042665, 399.4130838549935)"><path d="M 271.4579589838371,10.872299036143545 C 180.29259614837324,-5.132448907515936 90.57856247422853,-3.6305612439789456 0,15.416731418341215" fill="none" stroke="black" stroke-width="2" stroke-linecap="butt" stroke-linejoin="miter" stroke-miterlimit="10" transform="matrix(1, 0, 0, 1, 25.21589899084373, 20)"/><path d="M 0,0 L 8,4.62 L 0,9.24 z" fill="#000000" stroke="none" transform="matrix(-1.9571948183305392, 0.41156827270829277, -0.41156827270829277, -1.9571948183305392, 43.753500366565625, 40.960641161007814)"/><path d="M 0,0 L 8,4.62 L 0,9.24 z" fill="none" stroke="#000000" stroke-width="1" stroke-linecap="butt" stroke-linejoin="miter" stroke-miterlimit="10" transform="matrix(-1.9571948183305392, 0.41156827270829277, -0.41156827270829277, -1.9571948183305392, 43.753500366565625, 40.960641161007814)"/><g transform="matrix(1, 0, 0, 1, 98.72482834729902, 0)"><g transform="matrix(1, 0, 0, 1, 0, 0)"><g transform="matrix(1, 0, 0, 1, 0, 0)"><path d="M 0,4 A 4,4 0 0,1 3.999999999999999,0 L 115,0 A 4,4 0 0,1 119,3.999999999999999 L 119,36 A 4,4 0 0,1 115,40 L 4,40 A 4,4 0 0,1 0,36 z" fill="white" stroke="none" transform="matrix(1, 0, 0, 1, 1, 1)"/><path d="M 0,4 A 4,4 0 0,1 3.999999999999999,0 L 115,0 A 4,4 0 0,1 119,3.999999999999999 L 119,36 A 4,4 0 0,1 115,40 L 4,40 A 4,4 0 0,1 0,36 z" fill="none" stroke="#373f47" stroke-width="2" stroke-linecap="butt" stroke-linejoin="miter" stroke-miterlimit="10" transform="matrix(1, 0, 0, 1, 1, 1)"/><text x="55" y="12.557989883422852" style="font: 14px Lato" text-anchor="middle" fill="black" stroke="none" transform="matrix(1, 0, 0, 1, 6.2999999999999945, 6.011202697753906)">comesFromAttr</text><g transform="matrix(1, 0, 0, 1, 0, 0)" clip-path="url(#CLIP28680)"><path d="M 0,0 L 118,0 L 118,9 A 5,5 0 0,1 113,14 L 5,14 A 5,5 0 0,1 0,9 z" fill="#aaccff" stroke="none" transform="matrix(1, 0, 0, 1, 1.4999999999999971, 26.499999999999996)"/><path d="M 0,0 L 118,0 L 118,9 A 5,5 0 0,1 113,14 L 5,14 A 5,5 0 0,1 0,9 z" fill="none" stroke="#373f47" stroke-width="1" stroke-linecap="butt" stroke-linejoin="miter" stroke-miterlimit="10" transform="matrix(1, 0, 0, 1, 1.4999999999999971, 26.499999999999996)"/></g><g transform="matrix(1, 0, 0, 1, 0, 0)" clip-path="url(#CLIP28681)"><text x="15" y="8.969997024536134" style="font: 10px Lato" text-anchor="middle" fill="black" stroke="none" transform="matrix(1, 0, 0, 1, 45.5, 28.919999999999998)">0</text></g></g></g></g></g><g transform="matrix(1, 0, 0, 1, -495.4725177623044, 510.1686095765036)"><path d="M 38.19016568842301,0 C 32.81573802602122,33.01726300208895 20.483218500187547,60.574065252917194 0,78.17956545199058" fill="none" stroke="black" stroke-width="2" stroke-linecap="butt" stroke-linejoin="miter" stroke-miterlimit="10" transform="matrix(1, 0, 0, 1, 1, 1)"/></g><g transform="matrix(1, 0, 0, 1, -519.9034674470258, 476.1093919176709)"><path d="M 0,91.24504175266844 C -0.7239804670257399,53.56305195874842 11.608539058807878,26.006249707920176 32.64895504749046,0" fill="none" stroke="black" stroke-width="2" stroke-linecap="butt" stroke-linejoin="miter" stroke-miterlimit="10" transform="matrix(1, 0, 0, 1, 1, 21.645750846425862)"/><path d="M 0,0 L 8,4.62 L 0,9.24 z" fill="black" stroke="none" transform="matrix(1.2579535124854793, -1.5548482113780255, 1.5548482113780255, 1.2579535124854793, 15.772951454797408, 29.05021541545617)"/><path d="M 0,0 L 8,4.62 L 0,9.24 z" fill="none" stroke="black" stroke-width="1" stroke-linecap="butt" stroke-linejoin="miter" stroke-miterlimit="10" transform="matrix(1.2579535124854793, -1.5548482113780255, 1.5548482113780255, 1.2579535124854793, 15.772951454797408, 29.05021541545617)"/></g><g transform="matrix(1, 0, 0, 1, -580, 45)"><path d="M 64,0 C 99.3462239891708,0 128,28.653776010829212 128,64 C 128,99.3462239891708 99.3462239891708,128 64,128 C 28.653776010829212,128 0,99.3462239891708 0,64 C 0,28.653776010829212 28.653776010829212,0 64,0 z" fill="transparent" stroke="none" transform="matrix(1, 0, 0, 1, 17, 17)"/><g transform="matrix(1, 0, 0, 1, 0, 0)"><g transform="matrix(1, 0, 0, 1, 0, 0)" clip-path="url(#CLIP28682)"/></g><path d="M 64,0 C 99.3462239891708,0 128,28.653776010829212 128,64 C 128,99.3462239891708 99.3462239891708,128 64,128 C 28.653776010829212,128 0,99.3462239891708 0,64 C 0,28.653776010829212 28.653776010829212,0 64,0 z" fill="#AACCFF" stroke="none" transform="matrix(1, 0, 0, 1, 17, 17)"/><path d="M 64,0 C 99.3462239891708,0 128,28.653776010829212 128,64 C 128,99.3462239891708 99.3462239891708,128 64,128 C 28.653776010829212,128 0,99.3462239891708 0,64 C 0,28.653776010829212 28.653776010829212,0 64,0 z" fill="none" stroke="#373f47" stroke-width="2" stroke-linecap="butt" stroke-linejoin="miter" stroke-miterlimit="10" transform="matrix(1, 0, 0, 1, 17, 17)"/><text x="50" y="37.88199920654297" style="font: 18px Lato" text-anchor="middle" fill="black" stroke="none" transform="matrix(1, 0, 0, 1, 31, 48.5)">File</text><g transform="matrix(1, 0, 0, 1, 28, 16.909996471002003)"><path d="M 0,99 C 19.233073572552435,127.99494936611666 58.32961093261506,135.90851327382072 87.32456029873171,116.67543970126829 C 94.33782793162888,112.02336424273551 100.34792454146724,106.01326763289717 105,98.99999999999999 L 0,99 z" fill="#aaccff" stroke="none" transform="matrix(1, 0, 0, 1, 0.5, 0.5)"/><path d="M 0,99 C 19.233073572552435,127.99494936611666 58.32961093261506,135.90851327382072 87.32456029873171,116.67543970126829 C 94.33782793162888,112.02336424273551 100.34792454146724,106.01326763289717 105,98.99999999999999 L 0,99 z" fill="none" stroke="#373f47" stroke-width="1" stroke-linecap="butt" stroke-linejoin="miter" stroke-miterlimit="10" transform="matrix(1, 0, 0, 1, 0.5, 0.5)"/><g transform="matrix(1, 0, 0, 1, 0, 0)" clip-path="url(#CLIP28683)"><text x="0" y="8.969997024536134" style="font: 10px Lato" text-anchor="start" fill="black" stroke="none" transform="matrix(1, 0, 0, 1, 50, 108)">0</text></g></g></g><g transform="matrix(1, 0, 0, 1, -1025.8898738207363, 92.67480338563027)"><path d="M 64,0 C 99.3462239891708,0 128,28.653776010829212 128,64 C 128,99.3462239891708 99.3462239891708,128 64,128 C 28.653776010829212,128 0,99.3462239891708 0,64 C 0,28.653776010829212 28.653776010829212,0 64,0 z" fill="transparent" stroke="none" transform="matrix(1, 0, 0, 1, 17, 17)"/><g transform="matrix(1, 0, 0, 1, 0, 0)"><g transform="matrix(1, 0, 0, 1, 0, 0)" clip-path="url(#CLIP28684)"/></g><path d="M 64,0 C 99.3462239891708,0 128,28.653776010829212 128,64 C 128,99.3462239891708 99.3462239891708,128 64,128 C 28.653776010829212,128 0,99.3462239891708 0,64 C 0,28.653776010829212 28.653776010829212,0 64,0 z" fill="#fdc344" stroke="none" transform="matrix(1, 0, 0, 1, 17, 17)"/><path d="M 64,0 C 99.3462239891708,0 128,28.653776010829212 128,64 C 128,99.3462239891708 99.3462239891708,128 64,128 C 28.653776010829212,128 0,99.3462239891708 0,64 C 0,28.653776010829212 28.653776010829212,0 64,0 z" fill="none" stroke="#373f47" stroke-width="2" stroke-linecap="butt" stroke-linejoin="miter" stroke-miterlimit="10" transform="matrix(1, 0, 0, 1, 17, 17)"/><text x="50" y="37.88199920654297" style="font: 18px Lato" text-anchor="middle" fill="black" stroke="none" transform="matrix(1, 0, 0, 1, 31, 48.5)">rdfs:Literal</text><g transform="matrix(1, 0, 0, 1, 28, 16.909996471002003)"><path d="M 0,99 C 19.233073572552435,127.99494936611666 58.32961093261506,135.90851327382072 87.32456029873171,116.67543970126829 C 94.33782793162888,112.02336424273551 100.34792454146724,106.01326763289717 105,98.99999999999999 L 0,99 z" fill="#aaccff" stroke="none" transform="matrix(1, 0, 0, 1, 0.5, 0.5)"/><path d="M 0,99 C 19.233073572552435,127.99494936611666 58.32961093261506,135.90851327382072 87.32456029873171,116.67543970126829 C 94.33782793162888,112.02336424273551 100.34792454146724,106.01326763289717 105,98.99999999999999 L 0,99 z" fill="none" stroke="#373f47" stroke-width="1" stroke-linecap="butt" stroke-linejoin="miter" stroke-miterlimit="10" transform="matrix(1, 0, 0, 1, 0.5, 0.5)"/><g transform="matrix(1, 0, 0, 1, 0, 0)" clip-path="url(#CLIP28685)"><text x="0" y="8.969997024536134" style="font: 10px Lato" text-anchor="start" fill="black" stroke="none" transform="matrix(1, 0, 0, 1, 50, 108)">0</text></g></g></g><g transform="matrix(1, 0, 0, 1, -70, 578)"><g transform="matrix(1, 0, 0, 1, 0, 0)"><g transform="matrix(1, 0, 0, 1, 0, 0)"><g transform="matrix(1, 0, 0, 1, 0, 0)"><path d="M 0,4 A 4,4 0 0,1 3.999999999999999,0 L 91,0 A 4,4 0 0,1 95,3.999999999999999 L 95,36 A 4,4 0 0,1 91,40 L 4,40 A 4,4 0 0,1 0,36 z" fill="white" stroke="none" transform="matrix(1, 0, 0, 1, 1, 1)"/><path d="M 0,4 A 4,4 0 0,1 3.999999999999999,0 L 91,0 A 4,4 0 0,1 95,3.999999999999999 L 95,36 A 4,4 0 0,1 91,40 L 4,40 A 4,4 0 0,1 0,36 z" fill="none" stroke="#373f47" stroke-width="2" stroke-linecap="butt" stroke-linejoin="miter" stroke-miterlimit="10" transform="matrix(1, 0, 0, 1, 1, 1)"/><text x="43" y="12.557989883422852" style="font: 14px Lato" text-anchor="middle" fill="black" stroke="none" transform="matrix(1, 0, 0, 1, 6.2999999999999945, 8.411202697753906)">foreignkey</text><g transform="matrix(1, 0, 0, 1, 0, 0)" clip-path="url(#CLIP28686)"><path d="M 0,0 L 95,0 L 95,9 A 5,5 0 0,1 90,14 L 5,14 A 5,5 0 0,1 0,9 z" fill="#aaccff" stroke="none" transform="matrix(1, 0, 0, 1, 0.9999999999999971, 26.499999999999996)"/><path d="M 0,0 L 95,0 L 95,9 A 5,5 0 0,1 90,14 L 5,14 A 5,5 0 0,1 0,9 z" fill="none" stroke="#373f47" stroke-width="1" stroke-linecap="butt" stroke-linejoin="miter" stroke-miterlimit="10" transform="matrix(1, 0, 0, 1, 0.9999999999999971, 26.499999999999996)"/></g><g transform="matrix(1, 0, 0, 1, 0, 0)" clip-path="url(#CLIP28687)"><text x="15" y="8.969997024536134" style="font: 10px Lato" text-anchor="middle" fill="black" stroke="none" transform="matrix(1, 0, 0, 1, 33.5, 28.919999999999998)">0</text></g></g></g></g></g><g transform="matrix(1, 0, 0, 1, -527, 367)"><path d="M 64,0 C 99.3462239891708,0 128,28.653776010829212 128,64 C 128,99.3462239891708 99.3462239891708,128 64,128 C 28.653776010829212,128 0,99.3462239891708 0,64 C 0,28.653776010829212 28.653776010829212,0 64,0 z" fill="transparent" stroke="none" transform="matrix(1, 0, 0, 1, 17, 17)"/><g transform="matrix(1, 0, 0, 1, 0, 0)"><g transform="matrix(1, 0, 0, 1, 0, 0)" clip-path="url(#CLIP28688)"/></g><path d="M 64,0 C 99.3462239891708,0 128,28.653776010829212 128,64 C 128,99.3462239891708 99.3462239891708,128 64,128 C 28.653776010829212,128 0,99.3462239891708 0,64 C 0,28.653776010829212 28.653776010829212,0 64,0 z" fill="#AACCFF" stroke="none" transform="matrix(1, 0, 0, 1, 17, 17)"/><path d="M 64,0 C 99.3462239891708,0 128,28.653776010829212 128,64 C 128,99.3462239891708 99.3462239891708,128 64,128 C 28.653776010829212,128 0,99.3462239891708 0,64 C 0,28.653776010829212 28.653776010829212,0 64,0 z" fill="none" stroke="#373f47" stroke-width="2" stroke-linecap="butt" stroke-linejoin="miter" stroke-miterlimit="10" transform="matrix(1, 0, 0, 1, 17, 17)"/><text x="50" y="37.88199920654297" style="font: 18px Lato" text-anchor="middle" fill="black" stroke="none" transform="matrix(1, 0, 0, 1, 31, 48.5)">Attribute</text><g transform="matrix(1, 0, 0, 1, 28, 16.909996471002003)"><path d="M 0,99 C 19.233073572552435,127.99494936611666 58.32961093261506,135.90851327382072 87.32456029873171,116.67543970126829 C 94.33782793162888,112.02336424273551 100.34792454146724,106.01326763289717 105,98.99999999999999 L 0,99 z" fill="#aaccff" stroke="none" transform="matrix(1, 0, 0, 1, 0.5, 0.5)"/><path d="M 0,99 C 19.233073572552435,127.99494936611666 58.32961093261506,135.90851327382072 87.32456029873171,116.67543970126829 C 94.33782793162888,112.02336424273551 100.34792454146724,106.01326763289717 105,98.99999999999999 L 0,99 z" fill="none" stroke="#373f47" stroke-width="1" stroke-linecap="butt" stroke-linejoin="miter" stroke-miterlimit="10" transform="matrix(1, 0, 0, 1, 0.5, 0.5)"/><g transform="matrix(1, 0, 0, 1, 0, 0)" clip-path="url(#CLIP28689)"><text x="0" y="8.969997024536134" style="font: 10px Lato" text-anchor="start" fill="black" stroke="none" transform="matrix(1, 0, 0, 1, 50, 108)">0</text></g></g></g><g transform="matrix(1, 0, 0, 1, -563, 589)"><g transform="matrix(1, 0, 0, 1, 0, 0)"><g transform="matrix(1, 0, 0, 1, 0, 0)"><g transform="matrix(1, 0, 0, 1, 0, 0)"><path d="M 0,4 A 4,4 0 0,1 3.999999999999999,0 L 83,0 A 4,4 0 0,1 87,3.999999999999999 L 87,36 A 4,4 0 0,1 83,40 L 4,40 A 4,4 0 0,1 0,36 z" fill="white" stroke="none" transform="matrix(1, 0, 0, 1, 1, 1)"/><path d="M 0,4 A 4,4 0 0,1 3.999999999999999,0 L 83,0 A 4,4 0 0,1 87,3.999999999999999 L 87,36 A 4,4 0 0,1 83,40 L 4,40 A 4,4 0 0,1 0,36 z" fill="none" stroke="#373f47" stroke-width="2" stroke-linecap="butt" stroke-linejoin="miter" stroke-miterlimit="10" transform="matrix(1, 0, 0, 1, 1, 1)"/><text x="39" y="12.557989883422852" style="font: 14px Lato" text-anchor="middle" fill="black" stroke="none" transform="matrix(1, 0, 0, 1, 6.2999999999999945, 8.411202697753906)">relatesTo</text><g transform="matrix(1, 0, 0, 1, 0, 0)" clip-path="url(#CLIP28690)"><path d="M 0,0 L 87,0 L 87,9 A 5,5 0 0,1 82,14 L 5,14 A 5,5 0 0,1 0,9 z" fill="#aaccff" stroke="none" transform="matrix(1, 0, 0, 1, 0.9999999999999971, 26.499999999999996)"/><path d="M 0,0 L 87,0 L 87,9 A 5,5 0 0,1 82,14 L 5,14 A 5,5 0 0,1 0,9 z" fill="none" stroke="#373f47" stroke-width="1" stroke-linecap="butt" stroke-linejoin="miter" stroke-miterlimit="10" transform="matrix(1, 0, 0, 1, 0.9999999999999971, 26.499999999999996)"/></g><g transform="matrix(1, 0, 0, 1, 0, 0)" clip-path="url(#CLIP28691)"><text x="15" y="8.969997024536134" style="font: 10px Lato" text-anchor="middle" fill="black" stroke="none" transform="matrix(1, 0, 0, 1, 29.499999999999996, 28.919999999999998)">0</text></g></g></g></g></g><g transform="matrix(1, 0, 0, 1, -81.08943143924785, -200.25745261993734)"><path d="M 64,0 C 99.3462239891708,0 128,28.653776010829212 128,64 C 128,99.3462239891708 99.3462239891708,128 64,128 C 28.653776010829212,128 0,99.3462239891708 0,64 C 0,28.653776010829212 28.653776010829212,0 64,0 z" fill="transparent" stroke="none" transform="matrix(1, 0, 0, 1, 17, 17)"/><g transform="matrix(1, 0, 0, 1, 0, 0)"><g transform="matrix(1, 0, 0, 1, 0, 0)" clip-path="url(#CLIP28692)"/></g><path d="M 64,0 C 99.3462239891708,0 128,28.653776010829212 128,64 C 128,99.3462239891708 99.3462239891708,128 64,128 C 28.653776010829212,128 0,99.3462239891708 0,64 C 0,28.653776010829212 28.653776010829212,0 64,0 z" fill="#AACCFF" stroke="none" transform="matrix(1, 0, 0, 1, 17, 17)"/><path d="M 64,0 C 99.3462239891708,0 128,28.653776010829212 128,64 C 128,99.3462239891708 99.3462239891708,128 64,128 C 28.653776010829212,128 0,99.3462239891708 0,64 C 0,28.653776010829212 28.653776010829212,0 64,0 z" fill="none" stroke="#373f47" stroke-width="2" stroke-linecap="butt" stroke-linejoin="miter" stroke-miterlimit="10" transform="matrix(1, 0, 0, 1, 17, 17)"/><text x="50" y="37.88199920654297" style="font: 18px Lato" text-anchor="middle" fill="black" stroke="none" transform="matrix(1, 0, 0, 1, 31, 48.5)">Database</text><g transform="matrix(1, 0, 0, 1, 28, 16.909996471002003)"><path d="M 0,99 C 19.233073572552435,127.99494936611666 58.32961093261506,135.90851327382072 87.32456029873171,116.67543970126829 C 94.33782793162888,112.02336424273551 100.34792454146724,106.01326763289717 105,98.99999999999999 L 0,99 z" fill="#aaccff" stroke="none" transform="matrix(1, 0, 0, 1, 0.5, 0.5)"/><path d="M 0,99 C 19.233073572552435,127.99494936611666 58.32961093261506,135.90851327382072 87.32456029873171,116.67543970126829 C 94.33782793162888,112.02336424273551 100.34792454146724,106.01326763289717 105,98.99999999999999 L 0,99 z" fill="none" stroke="#373f47" stroke-width="1" stroke-linecap="butt" stroke-linejoin="miter" stroke-miterlimit="10" transform="matrix(1, 0, 0, 1, 0.5, 0.5)"/><g transform="matrix(1, 0, 0, 1, 0, 0)" clip-path="url(#CLIP28693)"><text x="0" y="8.969997024536134" style="font: 10px Lato" text-anchor="start" fill="black" stroke="none" transform="matrix(1, 0, 0, 1, 50, 108)">0</text></g></g></g><g transform="matrix(1, 0, 0, 1, -246.4826314995728, 33.567873720193745)"><path d="M 64,0 C 99.3462239891708,0 128,28.653776010829212 128,64 C 128,99.3462239891708 99.3462239891708,128 64,128 C 28.653776010829212,128 0,99.3462239891708 0,64 C 0,28.653776010829212 28.653776010829212,0 64,0 z" fill="transparent" stroke="none" transform="matrix(1, 0, 0, 1, 17, 17)"/><g transform="matrix(1, 0, 0, 1, 0, 0)"><g transform="matrix(1, 0, 0, 1, 0, 0)" clip-path="url(#CLIP28694)"/></g><path d="M 64,0 C 99.3462239891708,0 128,28.653776010829212 128,64 C 128,99.3462239891708 99.3462239891708,128 64,128 C 28.653776010829212,128 0,99.3462239891708 0,64 C 0,28.653776010829212 28.653776010829212,0 64,0 z" fill="#fdc344" stroke="none" transform="matrix(1, 0, 0, 1, 17, 17)"/><path d="M 64,0 C 99.3462239891708,0 128,28.653776010829212 128,64 C 128,99.3462239891708 99.3462239891708,128 64,128 C 28.653776010829212,128 0,99.3462239891708 0,64 C 0,28.653776010829212 28.653776010829212,0 64,0 z" fill="none" stroke="#373f47" stroke-width="2" stroke-linecap="butt" stroke-linejoin="miter" stroke-miterlimit="10" transform="matrix(1, 0, 0, 1, 17, 17)"/><text x="50" y="37.88199920654297" style="font: 18px Lato" text-anchor="middle" fill="black" stroke="none" transform="matrix(1, 0, 0, 1, 31, 48.5)">Description</text><g transform="matrix(1, 0, 0, 1, 28, 16.909996471002003)"><path d="M 0,99 C 19.233073572552435,127.99494936611666 58.32961093261506,135.90851327382072 87.32456029873171,116.67543970126829 C 94.33782793162888,112.02336424273551 100.34792454146724,106.01326763289717 105,98.99999999999999 L 0,99 z" fill="#aaccff" stroke="none" transform="matrix(1, 0, 0, 1, 0.5, 0.5)"/><path d="M 0,99 C 19.233073572552435,127.99494936611666 58.32961093261506,135.90851327382072 87.32456029873171,116.67543970126829 C 94.33782793162888,112.02336424273551 100.34792454146724,106.01326763289717 105,98.99999999999999 L 0,99 z" fill="none" stroke="#373f47" stroke-width="1" stroke-linecap="butt" stroke-linejoin="miter" stroke-miterlimit="10" transform="matrix(1, 0, 0, 1, 0.5, 0.5)"/><g transform="matrix(1, 0, 0, 1, 0, 0)" clip-path="url(#CLIP28695)"><text x="0" y="8.969997024536134" style="font: 10px Lato" text-anchor="start" fill="black" stroke="none" transform="matrix(1, 0, 0, 1, 50, 108)">0</text></g></g></g><g transform="matrix(1, 0, 0, 1, -129.8758315598975, 360.3518105802906)"><path d="M 64,0 C 99.3462239891708,0 128,28.653776010829212 128,64 C 128,99.3462239891708 99.3462239891708,128 64,128 C 28.653776010829212,128 0,99.3462239891708 0,64 C 0,28.653776010829212 28.653776010829212,0 64,0 z" fill="transparent" stroke="none" transform="matrix(1, 0, 0, 1, 17, 17)"/><g transform="matrix(1, 0, 0, 1, 0, 0)"><g transform="matrix(1, 0, 0, 1, 0, 0)" clip-path="url(#CLIP28696)"/></g><path d="M 64,0 C 99.3462239891708,0 128,28.653776010829212 128,64 C 128,99.3462239891708 99.3462239891708,128 64,128 C 28.653776010829212,128 0,99.3462239891708 0,64 C 0,28.653776010829212 28.653776010829212,0 64,0 z" fill="#AACCFF" stroke="none" transform="matrix(1, 0, 0, 1, 17, 17)"/><path d="M 64,0 C 99.3462239891708,0 128,28.653776010829212 128,64 C 128,99.3462239891708 99.3462239891708,128 64,128 C 28.653776010829212,128 0,99.3462239891708 0,64 C 0,28.653776010829212 28.653776010829212,0 64,0 z" fill="none" stroke="#373f47" stroke-width="2" stroke-linecap="butt" stroke-linejoin="miter" stroke-miterlimit="10" transform="matrix(1, 0, 0, 1, 17, 17)"/><text x="50" y="37.88199920654297" style="font: 18px Lato" text-anchor="middle" fill="black" stroke="none" transform="matrix(1, 0, 0, 1, 31, 48.5)">Column</text><g transform="matrix(1, 0, 0, 1, 28, 16.909996471002003)"><path d="M 0,99 C 19.233073572552435,127.99494936611666 58.32961093261506,135.90851327382072 87.32456029873171,116.67543970126829 C 94.33782793162888,112.02336424273551 100.34792454146724,106.01326763289717 105,98.99999999999999 L 0,99 z" fill="#aaccff" stroke="none" transform="matrix(1, 0, 0, 1, 0.5, 0.5)"/><path d="M 0,99 C 19.233073572552435,127.99494936611666 58.32961093261506,135.90851327382072 87.32456029873171,116.67543970126829 C 94.33782793162888,112.02336424273551 100.34792454146724,106.01326763289717 105,98.99999999999999 L 0,99 z" fill="none" stroke="#373f47" stroke-width="1" stroke-linecap="butt" stroke-linejoin="miter" stroke-miterlimit="10" transform="matrix(1, 0, 0, 1, 0.5, 0.5)"/><g transform="matrix(1, 0, 0, 1, 0, 0)" clip-path="url(#CLIP28697)"><text x="0" y="8.969997024536134" style="font: 10px Lato" text-anchor="start" fill="black" stroke="none" transform="matrix(1, 0, 0, 1, 50, 108)">0</text></g></g></g><g transform="matrix(1, 0, 0, 1, 54.08524222062101, 169.94037904050145)"><path d="M 64,0 C 99.3462239891708,0 128,28.653776010829212 128,64 C 128,99.3462239891708 99.3462239891708,128 64,128 C 28.653776010829212,128 0,99.3462239891708 0,64 C 0,28.653776010829212 28.653776010829212,0 64,0 z" fill="transparent" stroke="none" transform="matrix(1, 0, 0, 1, 17, 17)"/><g transform="matrix(1, 0, 0, 1, 0, 0)"><g transform="matrix(1, 0, 0, 1, 0, 0)" clip-path="url(#CLIP28698)"/></g><path d="M 64,0 C 99.3462239891708,0 128,28.653776010829212 128,64 C 128,99.3462239891708 99.3462239891708,128 64,128 C 28.653776010829212,128 0,99.3462239891708 0,64 C 0,28.653776010829212 28.653776010829212,0 64,0 z" fill="#AACCFF" stroke="none" transform="matrix(1, 0, 0, 1, 17, 17)"/><path d="M 64,0 C 99.3462239891708,0 128,28.653776010829212 128,64 C 128,99.3462239891708 99.3462239891708,128 64,128 C 28.653776010829212,128 0,99.3462239891708 0,64 C 0,28.653776010829212 28.653776010829212,0 64,0 z" fill="none" stroke="#373f47" stroke-width="2" stroke-linecap="butt" stroke-linejoin="miter" stroke-miterlimit="10" transform="matrix(1, 0, 0, 1, 17, 17)"/><text x="50" y="37.88199920654297" style="font: 18px Lato" text-anchor="middle" fill="black" stroke="none" transform="matrix(1, 0, 0, 1, 31, 48.5)">Table</text><g transform="matrix(1, 0, 0, 1, 28, 16.909996471002003)"><path d="M 0,99 C 19.233073572552435,127.99494936611666 58.32961093261506,135.90851327382072 87.32456029873171,116.67543970126829 C 94.33782793162888,112.02336424273551 100.34792454146724,106.01326763289717 105,98.99999999999999 L 0,99 z" fill="#aaccff" stroke="none" transform="matrix(1, 0, 0, 1, 0.5, 0.5)"/><path d="M 0,99 C 19.233073572552435,127.99494936611666 58.32961093261506,135.90851327382072 87.32456029873171,116.67543970126829 C 94.33782793162888,112.02336424273551 100.34792454146724,106.01326763289717 105,98.99999999999999 L 0,99 z" fill="none" stroke="#373f47" stroke-width="1" stroke-linecap="butt" stroke-linejoin="miter" stroke-miterlimit="10" transform="matrix(1, 0, 0, 1, 0.5, 0.5)"/><g transform="matrix(1, 0, 0, 1, 0, 0)" clip-path="url(#CLIP28699)"><text x="0" y="8.969997024536134" style="font: 10px Lato" text-anchor="start" fill="black" stroke="none" transform="matrix(1, 0, 0, 1, 50, 108)">0</text></g></g></g><g transform="matrix(1, 0, 0, 1, 207.37285737857184, 414.3770546822908)"><path d="M 64,0 C 99.3462239891708,0 128,28.653776010829212 128,64 C 128,99.3462239891708 99.3462239891708,128 64,128 C 28.653776010829212,128 0,99.3462239891708 0,64 C 0,28.653776010829212 28.653776010829212,0 64,0 z" fill="transparent" stroke="none" transform="matrix(1, 0, 0, 1, 17, 17)"/><g transform="matrix(1, 0, 0, 1, 0, 0)"><g transform="matrix(1, 0, 0, 1, 0, 0)" clip-path="url(#CLIP28700)"/></g><path d="M 64,0 C 99.3462239891708,0 128,28.653776010829212 128,64 C 128,99.3462239891708 99.3462239891708,128 64,128 C 28.653776010829212,128 0,99.3462239891708 0,64 C 0,28.653776010829212 28.653776010829212,0 64,0 z" fill="#ED5C5C" stroke="none" transform="matrix(1, 0, 0, 1, 17, 17)"/><path d="M 64,0 C 99.3462239891708,0 128,28.653776010829212 128,64 C 128,99.3462239891708 99.3462239891708,128 64,128 C 28.653776010829212,128 0,99.3462239891708 0,64 C 0,28.653776010829212 28.653776010829212,0 64,0 z" fill="none" stroke="#373f47" stroke-width="2" stroke-linecap="butt" stroke-linejoin="miter" stroke-miterlimit="10" transform="matrix(1, 0, 0, 1, 17, 17)"/><g transform="matrix(1, 0, 0, 1, 0, 0)"><text x="50" y="27.118000793457032" style="font: 18px Lato" text-anchor="middle" fill="black" stroke="none" transform="matrix(1, 0, 0, 1, 31, 48.5)">rdfs:DataTy</text><text x="50" y="48.6459976196289" style="font: 18px Lato" text-anchor="middle" fill="black" stroke="none" transform="matrix(1, 0, 0, 1, 31, 48.5)">pe</text></g><g transform="matrix(1, 0, 0, 1, 28, 16.909996471002003)"><path d="M 0,99 C 19.233073572552435,127.99494936611666 58.32961093261506,135.90851327382072 87.32456029873171,116.67543970126829 C 94.33782793162888,112.02336424273551 100.34792454146724,106.01326763289717 105,98.99999999999999 L 0,99 z" fill="#aaccff" stroke="none" transform="matrix(1, 0, 0, 1, 0.5, 0.5)"/><path d="M 0,99 C 19.233073572552435,127.99494936611666 58.32961093261506,135.90851327382072 87.32456029873171,116.67543970126829 C 94.33782793162888,112.02336424273551 100.34792454146724,106.01326763289717 105,98.99999999999999 L 0,99 z" fill="none" stroke="#373f47" stroke-width="1" stroke-linecap="butt" stroke-linejoin="miter" stroke-miterlimit="10" transform="matrix(1, 0, 0, 1, 0.5, 0.5)"/><g transform="matrix(1, 0, 0, 1, 0, 0)" clip-path="url(#CLIP28701)"><text x="0" y="8.969997024536134" style="font: 10px Lato" text-anchor="start" fill="black" stroke="none" transform="matrix(1, 0, 0, 1, 50, 108)">0</text></g></g></g><g transform="matrix(1, 0, 0, 1, -380.677999899459, -202.9105685607522)"><path d="M 64,0 C 99.3462239891708,0 128,28.653776010829212 128,64 C 128,99.3462239891708 99.3462239891708,128 64,128 C 28.653776010829212,128 0,99.3462239891708 0,64 C 0,28.653776010829212 28.653776010829212,0 64,0 z" fill="transparent" stroke="none" transform="matrix(1, 0, 0, 1, 17, 17)"/><g transform="matrix(1, 0, 0, 1, 0, 0)"><g transform="matrix(1, 0, 0, 1, 0, 0)" clip-path="url(#CLIP28702)"/></g><path d="M 64,0 C 99.3462239891708,0 128,28.653776010829212 128,64 C 128,99.3462239891708 99.3462239891708,128 64,128 C 28.653776010829212,128 0,99.3462239891708 0,64 C 0,28.653776010829212 28.653776010829212,0 64,0 z" fill="#AACCFF" stroke="none" transform="matrix(1, 0, 0, 1, 17, 17)"/><path d="M 64,0 C 99.3462239891708,0 128,28.653776010829212 128,64 C 128,99.3462239891708 99.3462239891708,128 64,128 C 28.653776010829212,128 0,99.3462239891708 0,64 C 0,28.653776010829212 28.653776010829212,0 64,0 z" fill="none" stroke="#373f47" stroke-width="2" stroke-linecap="butt" stroke-linejoin="miter" stroke-miterlimit="10" transform="matrix(1, 0, 0, 1, 17, 17)"/><text x="50" y="37.88199920654297" style="font: 18px Lato" text-anchor="middle" fill="black" stroke="none" transform="matrix(1, 0, 0, 1, 31, 48.5)">DataSource</text><g transform="matrix(1, 0, 0, 1, 28, 16.909996471002003)"><path d="M 0,99 C 19.233073572552435,127.99494936611666 58.32961093261506,135.90851327382072 87.32456029873171,116.67543970126829 C 94.33782793162888,112.02336424273551 100.34792454146724,106.01326763289717 105,98.99999999999999 L 0,99 z" fill="#aaccff" stroke="none" transform="matrix(1, 0, 0, 1, 0.5, 0.5)"/><path d="M 0,99 C 19.233073572552435,127.99494936611666 58.32961093261506,135.90851327382072 87.32456029873171,116.67543970126829 C 94.33782793162888,112.02336424273551 100.34792454146724,106.01326763289717 105,98.99999999999999 L 0,99 z" fill="none" stroke="#373f47" stroke-width="1" stroke-linecap="butt" stroke-linejoin="miter" stroke-miterlimit="10" transform="matrix(1, 0, 0, 1, 0.5, 0.5)"/><g transform="matrix(1, 0, 0, 1, 0, 0)" clip-path="url(#CLIP28703)"><text x="0" y="8.969997024536134" style="font: 10px Lato" text-anchor="start" fill="black" stroke="none" transform="matrix(1, 0, 0, 1, 50, 108)">0</text></g></g></g><g transform="matrix(1, 0, 0, 1, -718.6026107210483, -283.6829264205641)"><path d="M 64,0 C 99.3462239891708,0 128,28.653776010829212 128,64 C 128,99.3462239891708 99.3462239891708,128 64,128 C 28.653776010829212,128 0,99.3462239891708 0,64 C 0,28.653776010829212 28.653776010829212,0 64,0 z" fill="transparent" stroke="none" transform="matrix(1, 0, 0, 1, 17, 17)"/><g transform="matrix(1, 0, 0, 1, 0, 0)"><g transform="matrix(1, 0, 0, 1, 0, 0)" clip-path="url(#CLIP28704)"/></g><path d="M 64,0 C 99.3462239891708,0 128,28.653776010829212 128,64 C 128,99.3462239891708 99.3462239891708,128 64,128 C 28.653776010829212,128 0,99.3462239891708 0,64 C 0,28.653776010829212 28.653776010829212,0 64,0 z" fill="#fdc344" stroke="none" transform="matrix(1, 0, 0, 1, 17, 17)"/><path d="M 64,0 C 99.3462239891708,0 128,28.653776010829212 128,64 C 128,99.3462239891708 99.3462239891708,128 64,128 C 28.653776010829212,128 0,99.3462239891708 0,64 C 0,28.653776010829212 28.653776010829212,0 64,0 z" fill="none" stroke="#373f47" stroke-width="2" stroke-linecap="butt" stroke-linejoin="miter" stroke-miterlimit="10" transform="matrix(1, 0, 0, 1, 17, 17)"/><text x="50" y="37.88199920654297" style="font: 18px Lato" text-anchor="middle" fill="black" stroke="none" transform="matrix(1, 0, 0, 1, 31, 48.5)">rdfs:Literal</text><g transform="matrix(1, 0, 0, 1, 28, 16.909996471002003)"><path d="M 0,99 C 19.233073572552435,127.99494936611666 58.32961093261506,135.90851327382072 87.32456029873171,116.67543970126829 C 94.33782793162888,112.02336424273551 100.34792454146724,106.01326763289717 105,98.99999999999999 L 0,99 z" fill="#aaccff" stroke="none" transform="matrix(1, 0, 0, 1, 0.5, 0.5)"/><path d="M 0,99 C 19.233073572552435,127.99494936611666 58.32961093261506,135.90851327382072 87.32456029873171,116.67543970126829 C 94.33782793162888,112.02336424273551 100.34792454146724,106.01326763289717 105,98.99999999999999 L 0,99 z" fill="none" stroke="#373f47" stroke-width="1" stroke-linecap="butt" stroke-linejoin="miter" stroke-miterlimit="10" transform="matrix(1, 0, 0, 1, 0.5, 0.5)"/><g transform="matrix(1, 0, 0, 1, 0, 0)" clip-path="url(#CLIP28705)"><text x="0" y="8.969997024536134" style="font: 10px Lato" text-anchor="start" fill="black" stroke="none" transform="matrix(1, 0, 0, 1, 50, 108)">0</text></g></g></g><g transform="matrix(1, 0, 0, 1, 170.34269484055858, -71.08031569951567)"><path d="M 64,0 C 99.3462239891708,0 128,28.653776010829212 128,64 C 128,99.3462239891708 99.3462239891708,128 64,128 C 28.653776010829212,128 0,99.3462239891708 0,64 C 0,28.653776010829212 28.653776010829212,0 64,0 z" fill="transparent" stroke="none" transform="matrix(1, 0, 0, 1, 17, 17)"/><g transform="matrix(1, 0, 0, 1, 0, 0)"><g transform="matrix(1, 0, 0, 1, 0, 0)" clip-path="url(#CLIP28706)"/></g><path d="M 64,0 C 99.3462239891708,0 128,28.653776010829212 128,64 C 128,99.3462239891708 99.3462239891708,128 64,128 C 28.653776010829212,128 0,99.3462239891708 0,64 C 0,28.653776010829212 28.653776010829212,0 64,0 z" fill="#AACCFF" stroke="none" transform="matrix(1, 0, 0, 1, 17, 17)"/><path d="M 64,0 C 99.3462239891708,0 128,28.653776010829212 128,64 C 128,99.3462239891708 99.3462239891708,128 64,128 C 28.653776010829212,128 0,99.3462239891708 0,64 C 0,28.653776010829212 28.653776010829212,0 64,0 z" fill="none" stroke="#373f47" stroke-width="2" stroke-linecap="butt" stroke-linejoin="miter" stroke-miterlimit="10" transform="matrix(1, 0, 0, 1, 17, 17)"/><g transform="matrix(1, 0, 0, 1, 0, 0)"><text x="50" y="27.118000793457032" style="font: 18px Lato" text-anchor="middle" fill="black" stroke="none" transform="matrix(1, 0, 0, 1, 31, 48.5)">RelationalD</text><text x="50" y="48.6459976196289" style="font: 18px Lato" text-anchor="middle" fill="black" stroke="none" transform="matrix(1, 0, 0, 1, 31, 48.5)">atabase</text></g><g transform="matrix(1, 0, 0, 1, 28, 16.909996471002003)"><path d="M 0,99 C 19.233073572552435,127.99494936611666 58.32961093261506,135.90851327382072 87.32456029873171,116.67543970126829 C 94.33782793162888,112.02336424273551 100.34792454146724,106.01326763289717 105,98.99999999999999 L 0,99 z" fill="#aaccff" stroke="none" transform="matrix(1, 0, 0, 1, 0.5, 0.5)"/><path d="M 0,99 C 19.233073572552435,127.99494936611666 58.32961093261506,135.90851327382072 87.32456029873171,116.67543970126829 C 94.33782793162888,112.02336424273551 100.34792454146724,106.01326763289717 105,98.99999999999999 L 0,99 z" fill="none" stroke="#373f47" stroke-width="1" stroke-linecap="butt" stroke-linejoin="miter" stroke-miterlimit="10" transform="matrix(1, 0, 0, 1, 0.5, 0.5)"/><g transform="matrix(1, 0, 0, 1, 0, 0)" clip-path="url(#CLIP28707)"><text x="0" y="8.969997024536134" style="font: 10px Lato" text-anchor="start" fill="black" stroke="none" transform="matrix(1, 0, 0, 1, 50, 108)">0</text></g></g></g></g></g><clipPath id="mainClip28645"><rect x="0" y="0" width="1398" height="975"/></clipPath><clipPath id="CLIP28646"><path d="M 1.2,1.2 L 111.8,1.2 L 111.8,42 L 1.2,42 z" transform="matrix(1, 0, 0, 1, 0, 0)"/></clipPath><clipPath id="CLIP28647"><path d="M 41.5,28.919999999999998 L 71.5,28.919999999999998 L 71.5,38.92 L 41.5,38.92 z" transform="matrix(1, 0, 0, 1, 0, 0)"/></clipPath><clipPath id="CLIP28648"><path d="M 1.2,1.2 L 103.8,1.2 L 103.8,42 L 1.2,42 z" transform="matrix(1, 0, 0, 1, 0, 0)"/></clipPath><clipPath id="CLIP28649"><path d="M 37.5,28.919999999999998 L 67.5,28.919999999999998 L 67.5,38.92 L 37.5,38.92 z" transform="matrix(1, 0, 0, 1, 0, 0)"/></clipPath><clipPath id="CLIP28650"><path d="M 1.2,1.2 L 135.8,1.2 L 135.8,42 L 1.2,42 z" transform="matrix(1, 0, 0, 1, 0, 0)"/></clipPath><clipPath id="CLIP28651"><path d="M 53.500000000000014,28.919999999999998 L 83.50000000000001,28.919999999999998 L 83.50000000000001,38.92 L 53.500000000000014,38.92 z" transform="matrix(1, 0, 0, 1, 0, 0)"/></clipPath><clipPath id="CLIP28652"><path d="M 1.2,1.2 L 103.8,1.2 L 103.8,42 L 1.2,42 z" transform="matrix(1, 0, 0, 1, 0, 0)"/></clipPath><clipPath id="CLIP28653"><path d="M 37.5,28.919999999999998 L 67.5,28.919999999999998 L 67.5,38.92 L 37.5,38.92 z" transform="matrix(1, 0, 0, 1, 0, 0)"/></clipPath><clipPath id="CLIP28654"><path d="M 1.2,1.2 L 111.8,1.2 L 111.8,42 L 1.2,42 z" transform="matrix(1, 0, 0, 1, 0, 0)"/></clipPath><clipPath id="CLIP28655"><path d="M 41.5,28.919999999999998 L 71.5,28.919999999999998 L 71.5,38.92 L 41.5,38.92 z" transform="matrix(1, 0, 0, 1, 0, 0)"/></clipPath><clipPath id="CLIP28656"><path d="M 1.2,1.2 L 103.8,1.2 L 103.8,42 L 1.2,42 z" transform="matrix(1, 0, 0, 1, 0, 0)"/></clipPath><clipPath id="CLIP28657"><path d="M 37.5,28.919999999999998 L 67.5,28.919999999999998 L 67.5,38.92 L 37.5,38.92 z" transform="matrix(1, 0, 0, 1, 0, 0)"/></clipPath><clipPath id="CLIP28658"><path d="M 1.2,1.2 L 87.8,1.2 L 87.8,42 L 1.2,42 z" transform="matrix(1, 0, 0, 1, 0, 0)"/></clipPath><clipPath id="CLIP28659"><path d="M 29.499999999999996,28.919999999999998 L 59.5,28.919999999999998 L 59.5,38.92 L 29.499999999999996,38.92 z" transform="matrix(1, 0, 0, 1, 0, 0)"/></clipPath><clipPath id="CLIP28660"><path d="M 1.2,1.2 L 111.8,1.2 L 111.8,42 L 1.2,42 z" transform="matrix(1, 0, 0, 1, 0, 0)"/></clipPath><clipPath id="CLIP28661"><path d="M 41.5,28.919999999999998 L 71.5,28.919999999999998 L 71.5,38.92 L 41.5,38.92 z" transform="matrix(1, 0, 0, 1, 0, 0)"/></clipPath><clipPath id="CLIP28662"><path d="M 1.2,1.2 L 103.8,1.2 L 103.8,42 L 1.2,42 z" transform="matrix(1, 0, 0, 1, 0, 0)"/></clipPath><clipPath id="CLIP28663"><path d="M 37.5,28.919999999999998 L 67.5,28.919999999999998 L 67.5,38.92 L 37.5,38.92 z" transform="matrix(1, 0, 0, 1, 0, 0)"/></clipPath><clipPath id="CLIP28664"><path d="M 1.2,1.2 L 111.8,1.2 L 111.8,42 L 1.2,42 z" transform="matrix(1, 0, 0, 1, 0, 0)"/></clipPath><clipPath id="CLIP28665"><path d="M 41.5,28.919999999999998 L 71.5,28.919999999999998 L 71.5,38.92 L 41.5,38.92 z" transform="matrix(1, 0, 0, 1, 0, 0)"/></clipPath><clipPath id="CLIP28666"><path d="M 1.2,1.2 L 71.8,1.2 L 71.8,42 L 1.2,42 z" transform="matrix(1, 0, 0, 1, 0, 0)"/></clipPath><clipPath id="CLIP28667"><path d="M 21.499999999999996,28.919999999999998 L 51.5,28.919999999999998 L 51.5,38.92 L 21.499999999999996,38.92 z" transform="matrix(1, 0, 0, 1, 0, 0)"/></clipPath><clipPath id="CLIP28668"><path d="M 1.2,1.2 L 39.8,1.2 L 39.8,42 L 1.2,42 z" transform="matrix(1, 0, 0, 1, 0, 0)"/></clipPath><clipPath id="CLIP28669"><path d="M 5.499999999999997,28.919999999999998 L 35.5,28.919999999999998 L 35.5,38.92 L 5.499999999999997,38.92 z" transform="matrix(1, 0, 0, 1, 0, 0)"/></clipPath><clipPath id="CLIP28670"><path d="M 1.2,1.2 L 71.8,1.2 L 71.8,42 L 1.2,42 z" transform="matrix(1, 0, 0, 1, 0, 0)"/></clipPath><clipPath id="CLIP28671"><path d="M 21.499999999999996,28.919999999999998 L 51.5,28.919999999999998 L 51.5,38.92 L 21.499999999999996,38.92 z" transform="matrix(1, 0, 0, 1, 0, 0)"/></clipPath><clipPath id="CLIP28672"><path d="M 1.2,1.2 L 63.8,1.2 L 63.8,42 L 1.2,42 z" transform="matrix(1, 0, 0, 1, 0, 0)"/></clipPath><clipPath id="CLIP28673"><path d="M 17.499999999999996,28.919999999999998 L 47.5,28.919999999999998 L 47.5,38.92 L 17.499999999999996,38.92 z" transform="matrix(1, 0, 0, 1, 0, 0)"/></clipPath><clipPath id="CLIP28674"><path d="M 1.2,1.2 L 87.8,1.2 L 87.8,42 L 1.2,42 z" transform="matrix(1, 0, 0, 1, 0, 0)"/></clipPath><clipPath id="CLIP28675"><path d="M 29.499999999999996,28.919999999999998 L 59.5,28.919999999999998 L 59.5,38.92 L 29.499999999999996,38.92 z" transform="matrix(1, 0, 0, 1, 0, 0)"/></clipPath><clipPath id="CLIP28676"><path d="M 1.2,1.2 L 103.8,1.2 L 103.8,42 L 1.2,42 z" transform="matrix(1, 0, 0, 1, 0, 0)"/></clipPath><clipPath id="CLIP28677"><path d="M 37.5,28.919999999999998 L 67.5,28.919999999999998 L 67.5,38.92 L 37.5,38.92 z" transform="matrix(1, 0, 0, 1, 0, 0)"/></clipPath><clipPath id="CLIP28678"><path d="M 1.2,1.2 L 79.8,1.2 L 79.8,42 L 1.2,42 z" transform="matrix(1, 0, 0, 1, 0, 0)"/></clipPath><clipPath id="CLIP28679"><path d="M 25.499999999999996,28.919999999999998 L 55.5,28.919999999999998 L 55.5,38.92 L 25.499999999999996,38.92 z" transform="matrix(1, 0, 0, 1, 0, 0)"/></clipPath><clipPath id="CLIP28680"><path d="M 1.2,1.2 L 119.8,1.2 L 119.8,42 L 1.2,42 z" transform="matrix(1, 0, 0, 1, 0, 0)"/></clipPath><clipPath id="CLIP28681"><path d="M 45.5,28.919999999999998 L 75.5,28.919999999999998 L 75.5,38.92 L 45.5,38.92 z" transform="matrix(1, 0, 0, 1, 0, 0)"/></clipPath><clipPath id="CLIP28682"><path d="M -1,-1 L 162,-1 L 162,162 L -1,162 z" transform="matrix(1, 0, 0, 1, 0, 0)"/></clipPath><clipPath id="CLIP28683"><path d="M 50,108 L 80,108 L 80,118 L 50,118 z" transform="matrix(1, 0, 0, 1, 0, 0)"/></clipPath><clipPath id="CLIP28684"><path d="M -1,-1 L 162,-1 L 162,162 L -1,162 z" transform="matrix(1, 0, 0, 1, 0, 0)"/></clipPath><clipPath id="CLIP28685"><path d="M 50,108 L 80,108 L 80,118 L 50,118 z" transform="matrix(1, 0, 0, 1, 0, 0)"/></clipPath><clipPath id="CLIP28686"><path d="M 1.2,1.2 L 95.8,1.2 L 95.8,42 L 1.2,42 z" transform="matrix(1, 0, 0, 1, 0, 0)"/></clipPath><clipPath id="CLIP28687"><path d="M 33.5,28.919999999999998 L 63.5,28.919999999999998 L 63.5,38.92 L 33.5,38.92 z" transform="matrix(1, 0, 0, 1, 0, 0)"/></clipPath><clipPath id="CLIP28688"><path d="M -1,-1 L 162,-1 L 162,162 L -1,162 z" transform="matrix(1, 0, 0, 1, 0, 0)"/></clipPath><clipPath id="CLIP28689"><path d="M 50,108 L 80,108 L 80,118 L 50,118 z" transform="matrix(1, 0, 0, 1, 0, 0)"/></clipPath><clipPath id="CLIP28690"><path d="M 1.2,1.2 L 87.8,1.2 L 87.8,42 L 1.2,42 z" transform="matrix(1, 0, 0, 1, 0, 0)"/></clipPath><clipPath id="CLIP28691"><path d="M 29.499999999999996,28.919999999999998 L 59.5,28.919999999999998 L 59.5,38.92 L 29.499999999999996,38.92 z" transform="matrix(1, 0, 0, 1, 0, 0)"/></clipPath><clipPath id="CLIP28692"><path d="M -1,-1 L 162,-1 L 162,162 L -1,162 z" transform="matrix(1, 0, 0, 1, 0, 0)"/></clipPath><clipPath id="CLIP28693"><path d="M 50,108 L 80,108 L 80,118 L 50,118 z" transform="matrix(1, 0, 0, 1, 0, 0)"/></clipPath><clipPath id="CLIP28694"><path d="M -1,-1 L 162,-1 L 162,162 L -1,162 z" transform="matrix(1, 0, 0, 1, 0, 0)"/></clipPath><clipPath id="CLIP28695"><path d="M 50,108 L 80,108 L 80,118 L 50,118 z" transform="matrix(1, 0, 0, 1, 0, 0)"/></clipPath><clipPath id="CLIP28696"><path d="M -1,-1 L 162,-1 L 162,162 L -1,162 z" transform="matrix(1, 0, 0, 1, 0, 0)"/></clipPath><clipPath id="CLIP28697"><path d="M 50,108 L 80,108 L 80,118 L 50,118 z" transform="matrix(1, 0, 0, 1, 0, 0)"/></clipPath><clipPath id="CLIP28698"><path d="M -1,-1 L 162,-1 L 162,162 L -1,162 z" transform="matrix(1, 0, 0, 1, 0, 0)"/></clipPath><clipPath id="CLIP28699"><path d="M 50,108 L 80,108 L 80,118 L 50,118 z" transform="matrix(1, 0, 0, 1, 0, 0)"/></clipPath><clipPath id="CLIP28700"><path d="M -1,-1 L 162,-1 L 162,162 L -1,162 z" transform="matrix(1, 0, 0, 1, 0, 0)"/></clipPath><clipPath id="CLIP28701"><path d="M 50,108 L 80,108 L 80,118 L 50,118 z" transform="matrix(1, 0, 0, 1, 0, 0)"/></clipPath><clipPath id="CLIP28702"><path d="M -1,-1 L 162,-1 L 162,162 L -1,162 z" transform="matrix(1, 0, 0, 1, 0, 0)"/></clipPath><clipPath id="CLIP28703"><path d="M 50,108 L 80,108 L 80,118 L 50,118 z" transform="matrix(1, 0, 0, 1, 0, 0)"/></clipPath><clipPath id="CLIP28704"><path d="M -1,-1 L 162,-1 L 162,162 L -1,162 z" transform="matrix(1, 0, 0, 1, 0, 0)"/></clipPath><clipPath id="CLIP28705"><path d="M 50,108 L 80,108 L 80,118 L 50,118 z" transform="matrix(1, 0, 0, 1, 0, 0)"/></clipPath><clipPath id="CLIP28706"><path d="M -1,-1 L 162,-1 L 162,162 L -1,162 z" transform="matrix(1, 0, 0, 1, 0, 0)"/></clipPath><clipPath id="CLIP28707"><path d="M 50,108 L 80,108 L 80,118 L 50,118 z" transform="matrix(1, 0, 0, 1, 0, 0)"/></clipPath></svg>